<?xml version="1.0" encoding="utf-8"?>
<!-- Generator: Adobe Illustrator 23.0.6, SVG Export Plug-In . SVG Version: 6.00 Build 0)  -->
<svg version="1.1" id="Capa_1" xmlns="http://www.w3.org/2000/svg" xmlns:xlink="http://www.w3.org/1999/xlink" x="0px" y="0px"
	 viewBox="0 0 1080 1080" style="enable-background:new 0 0 1080 1080;" xml:space="preserve">
<style type="text/css">
	.st0{fill:url(#SVGID_1_);}
	.st1{fill:url(#SVGID_2_);}
	.st2{fill:url(#SVGID_3_);}
	.st3{fill:url(#SVGID_4_);}
	.st4{fill:#73676D;}
	.st5{fill:#C6C0C3;}
	.st6{fill:#FFFFFF;}
	.st7{fill:#9D999E;}
	.st8{fill:#CD4834;}
	.st9{fill:#7693A2;}
	.st10{fill:#B9E6E9;}
	.st11{fill:#CE7E4E;}
	.st12{fill:#EEC9AD;}
	.st13{fill:#FAFBFD;}
	.st14{fill:#54788B;}
	.st15{opacity:0.37;fill:#150D27;enable-background:new    ;}
</style>
<linearGradient id="SVGID_1_" gradientUnits="userSpaceOnUse" x1="541" y1="1317.4758" x2="541" y2="173.5667" gradientTransform="matrix(1 0 0 -1 0 1080)">
	<stop  offset="0" style="stop-color:#CBECEF"/>
	<stop  offset="1" style="stop-color:#CBECEF;stop-opacity:0"/>
</linearGradient>
<path class="st0" d="M111.1,480.2c0,3.8-0.1,7.6-0.4,11.4c0.1,0,0.3,0,0.4,0c29.8,0,57.6,8.4,81.2,22.9c26.1-49.4,77.9-83,137.6-83
	c85.6,0,155,69.1,155.6,154.5h103.9c16.4-68.4,77.9-119.3,151.3-119.3c57.9,0,108.4,31.6,135.2,78.5c14-17.2,34.4-29.1,57.5-32.1
	c-3.2-12.5-5-25.6-5-39.2c0-76.7,55.5-140.5,128.6-153.2v-154c0-24.3-19.7-44.1-44.1-44.1H69.1c-24.3,0-44.1,19.7-44.1,44.1V341
	C76,366.5,111.1,419.3,111.1,480.2z"/>
<g>
	
		<linearGradient id="SVGID_2_" gradientUnits="userSpaceOnUse" x1="333.2477" y1="171.3797" x2="223.1655" y2="-2.674673e-02" gradientTransform="matrix(1 0 0 -1 0 1080)">
		<stop  offset="0.2173" style="stop-color:#C6C0C3;stop-opacity:0.7"/>
		<stop  offset="0.9775" style="stop-color:#C6C0C3;stop-opacity:0"/>
	</linearGradient>
	<path class="st1" d="M337.6,988.3c-2.8,0.9-176.5,67-176.5,67l58.5,21.7l125.2-65L337.6,988.3z"/>
	
		<linearGradient id="SVGID_3_" gradientUnits="userSpaceOnUse" x1="270.116" y1="211.9247" x2="160.0338" y2="40.5182" gradientTransform="matrix(1 0 0 -1 0 1080)">
		<stop  offset="0.2173" style="stop-color:#C6C0C3;stop-opacity:0.7"/>
		<stop  offset="0.9775" style="stop-color:#C6C0C3;stop-opacity:0"/>
	</linearGradient>
	<polygon class="st2" points="280,978.8 144.1,1065.7 78,1041.1 247,978.8 	"/>
</g>
<g>
	
		<linearGradient id="SVGID_4_" gradientUnits="userSpaceOnUse" x1="550.4244" y1="148.9391" x2="839.3373" y2="469.9533" gradientTransform="matrix(1 0 0 -1 0 1080)">
		<stop  offset="0.2173" style="stop-color:#C6C0C3;stop-opacity:0.7"/>
		<stop  offset="0.9775" style="stop-color:#C6C0C3;stop-opacity:0"/>
	</linearGradient>
	<path class="st3" d="M668.4,959.9c0,0,48.7,28.5,110.9-35.8s125.5-123.4,125.5-123.4s51.5-34.3-10.7-55.8s-280-71.9-280-71.9
		L553,691.3L503.7,717L449,800.7L668.4,959.9z"/>
	<g>
		<path class="st4" d="M821.4,80.6l-329-64.3c-0.8-0.2-1.7-0.3-2.5-0.4c-0.9-0.2-1.8-0.3-2.8-0.4c-30.9-3.4-52.2,12.7-52.2,12.7l0,0
			c-10.6,7-18.1,18.5-19.6,32.2l-81.2,763.8c-2.2,20.8,10.4,40.3,30.3,46.7l300.8,97.2c2,0.7,4.1,1.1,6.1,1.5l0.2,0.7
			c0,0,37.2,5.3,58.8-14.5l0,0c8.9-6.8,15.2-16.9,16.9-29L856.6,130C859.8,106.7,844.3,85.1,821.4,80.6z"/>
		<path class="st5" d="M364.4,870.9l300.8,97.2c26.1,8.4,53.6-8.8,57.3-36L832,135.3c3.2-23.2-12.3-44.9-35.3-49.3l-329-64.3
			c-25.4-5-49.6,12.9-52.4,38.7l-81.2,763.8C331.9,845,344.5,864.4,364.4,870.9z"/>
		<path class="st6" d="M452.5,86l333.4,71.2c8.6,1.8,14.3,10,13.1,18.7L698.8,871.6c-1.5,10.2-11.6,16.6-21.4,13.6l-305-93.2
			c-7.7-2.3-12.6-9.8-11.7-17.8l71.7-673.6C433.4,90.7,442.8,84,452.5,86z"/>
		<g>
			<path class="st7" d="M720.2,329.1c-0.5,0-1,0-1.4-0.2l-259.1-59.8c-3.4-0.8-5.7-4.3-5-7.8s4-5.8,7.4-5l259.1,59.8
				c3.4,0.8,5.7,4.3,5,7.8C725.6,327.1,723.1,329.1,720.2,329.1z"/>
			<path class="st7" d="M575.3,210.8c-0.5,0-1,0-1.5-0.2l-109.9-25.7c-3.4-0.8-5.7-4.3-5-7.8s4-5.7,7.4-4.9l109.9,25.7
				c3.4,0.8,5.7,4.3,5,7.8C580.6,208.7,578.1,210.8,575.3,210.8z"/>
			<path class="st7" d="M714.6,364.6c-0.5,0-1,0-1.5-0.2l-257.3-61c-3.4-0.8-5.6-4.3-5-7.9c0.7-3.5,4-5.7,7.4-4.9l257.3,61
				c3.4,0.8,5.6,4.3,5,7.9C719.9,362.5,717.4,364.6,714.6,364.6z"/>
			<path class="st7" d="M708.9,400.1c-0.5,0-1-0.1-1.5-0.2l-255.4-62c-3.4-0.8-5.6-4.4-4.9-7.9s4-5.7,7.5-4.9L710,387.2
				c3.4,0.8,5.6,4.4,4.9,7.9C714.3,398,711.8,400.1,708.9,400.1z"/>
			<path class="st7" d="M703.3,435.6c-0.5,0-1-0.1-1.6-0.2l-253.6-63.2c-3.4-0.9-5.6-4.4-4.9-7.9s4.1-5.7,7.5-4.8l253.6,63.2
				c3.4,0.9,5.6,4.4,4.9,7.9C708.6,433.5,706.1,435.5,703.3,435.6z"/>
			<path class="st7" d="M697.6,471c-0.5,0-1.1-0.1-1.6-0.2l-251.7-64.3c-3.4-0.9-5.6-4.4-4.8-7.9c0.7-3.5,4.1-5.7,7.5-4.8
				l251.7,64.3c3.4,0.9,5.6,4.4,4.8,7.9C702.9,469,700.5,471,697.6,471z"/>
			<path class="st7" d="M564.9,473.3c-0.5,0-1.1-0.1-1.6-0.2l-122.8-32.2c-3.4-0.9-5.6-4.5-4.8-8c0.8-3.5,4.1-5.6,7.5-4.7L566,460.4
				c3.4,0.9,5.6,4.5,4.8,8C570.2,471.3,567.7,473.3,564.9,473.3z"/>
		</g>
		<circle class="st8" cx="759.9" cy="183.5" r="9.7"/>
		<circle class="st9" cx="730.9" cy="177.1" r="9.7"/>
		<circle class="st10" cx="702" cy="170.6" r="9.7"/>
		<g>
			<path class="st11" d="M598.7,718.1l-42.1-57.4L552,639c-1.4-6.6-7.6-12.1-14-12.4c-6.4-0.3-10.4,4.8-9,11.3l5.2,24.8
				c0.4,2,1.3,4,2.7,5.9l7.6,10.4L487,706.8c-0.3,0.1-0.5,0.2-0.8,0.4l-15.3,8.9c-3.7,2.2-4.2,7.5-1,11.9c1.5,2.1,3.6,3.7,5.8,4.5
				c2.3,0.8,4.8,0.8,6.7-0.3l7.4-3.9l-5.7,4c-3.7,2.6-3.8,8.4-0.1,13c1.6,2,3.6,3.4,5.8,4.2c1.7,0.6,3.4,0.8,4.9,0.5
				c-2.4,2.7-2.4,7.2,0.3,11.2c1.6,2.4,4,4.2,6.4,5c1.8,0.7,3.9,1,5.7,0.6c-3.4,2.4-3.9,7.6-0.9,12.1c1.6,2.5,4,4.2,6.4,5.1
				c2.4,0.8,4.8,0.9,6.8-0.2l10.3-5.3c0.1,0,0.2-0.1,0.3-0.2l4.2,6.7l48.1-27l0.3,0.7l56.8,20.3l4.9-44.6L598.7,718.1z"/>
			<path class="st12" d="M592.1,765.5l-6.7-12.7c-2.7-5.1-8.5-8-13-6.6c-2.6,0.8-4.2,3-4.6,5.6c-2.6-3.5-6.9-5.7-10.7-5.1
				c-4.8,0.7-7.1,5.6-5.1,10.8l5.2,13.6l-7.1-14.2c-2.5-5.1-8.3-8.2-12.9-6.8c-4.6,1.3-6.2,6.5-3.6,11.6l4.2,8.3l-4-6.8
				c-2.7-4.7-8.2-7.1-12.3-5.5s-5.2,6.7-2.4,11.4l7.9,13.6c1.5,2.6,3.9,4.5,6.5,5.4c2,0.7,4.1,0.8,5.8,0.1c3-1.2,4.3-4.2,3.8-7.5
				c1.6,2.7,4.2,4.8,6.9,5.8c1.9,0.7,3.8,0.8,5.6,0.3c3.6-1,5.4-4.5,4.7-8.4c1.6,2.5,4,4.4,6.6,5.3c1.5,0.5,3.1,0.7,4.6,0.5
				c4.8-0.7,7.1-5.6,5.1-10.8l-1.4-3.6l0.5,1c1.6,3,4.3,5.3,7.2,6.3c1.9,0.7,4,0.8,5.8,0.2C593.3,775.9,594.8,770.6,592.1,765.5z"/>
			<path class="st12" d="M561.8,684.2l-31-30.7c-4.5-4.5-10.8-5.4-14.5-2.2c-0.9,0.3-1.8,0.8-2.6,1.4l-31.8,23.6l-50.2-18l-4.9,44.6
				l42,15c0.5-1.5,9.8-6.3,10.6-6.9l55.7-27.4l7.1,7l-7.6,14.1c-2.5,4.6-0.1,11.3,5.2,15.1c1.1,0.8,2.2,1.4,3.4,1.8
				c4.4,1.6,8.8,0.4,10.8-3.2l11.2-20.8C567.1,693.7,565.8,688.1,561.8,684.2z"/>
			<g>
				<polygon class="st10" points="422,706.8 427.9,653.4 463,666 457.1,719.3 				"/>
				<path class="st6" d="M455,708.9c0.3-2.4-1.6-5.1-4.1-6s-4.8,0.3-5.1,2.7c-0.3,2.4,1.6,5.1,4.1,6
					C452.5,712.5,454.8,711.3,455,708.9z M450.7,706.3c0-0.4,0.4-0.6,0.8-0.5c0.4,0.2,0.7,0.6,0.7,1s-0.4,0.6-0.9,0.5
					C451,707.2,450.7,706.7,450.7,706.3z M448.6,707.6c0-0.4,0.4-0.6,0.9-0.5c0.4,0.2,0.7,0.6,0.7,1s-0.4,0.6-0.9,0.5
					C448.8,708.5,448.5,708,448.6,707.6z"/>
				<polygon class="st9" points="420.8,717.7 428.3,649.4 448.8,656.8 441.2,725 				"/>
			</g>
			<g>
				<polygon class="st10" points="639.8,786.5 645.7,733.1 610.6,720.5 604.7,773.9 				"/>
				<polygon class="st9" points="638.6,797.4 646.2,729.1 625.7,721.8 618.1,790 				"/>
			</g>
		</g>
		<path class="st13" d="M642.9,98l-60.4-12.7c-3.8-0.8-6.8-5.1-6.7-9.5l0,0c0.1-4.5,3.4-7.4,7.2-6.6l60.4,12.7
			c3.8,0.8,6.8,5.1,6.7,9.5l0,0C650,95.8,646.7,98.8,642.9,98z"/>
		
			<ellipse transform="matrix(5.583706e-02 -0.9984 0.9984 5.583706e-02 -391.2798 1323.1871)" class="st13" cx="504" cy="868.5" rx="23.6" ry="18.2"/>
	</g>
</g>
<g>
	<g>
		<path class="st8" d="M334.1,988.9c0,0,10.5-3.5,17.5-9.4s24.6,11.7,0,28.1c-24.6,16.4-52.6,26.9-48,2.3c4.7-24.6,16.4-9.4,23.4-14
			S334.1,988.9,334.1,988.9z"/>
		<path class="st8" d="M248.9,963.9c0,0-3.6,22.7,5.7,23.9c9.4,1.2,14,0,23.4-8.2c6.9-6,15.3-9.8,22.2-15.7
			c3.4-2.9,9.6-9.8,6.2-14.6c-3-4.3-12.6-6.3-16.8-3.5c-1.8,1.2-3.1,2.9-4.7,4.3c-5.7,5.1-14.8,4.7-21.7,7.3
			C258.3,959.2,253.5,961.4,248.9,963.9z"/>
		<path class="st12" d="M226,413.2c0,0-24.1,9.6-55.7,70.5c-29,55.9-37.4,59.6-37.4,59.6s32.7,38.6,52.6,50.3s39.8,26.9,45.6,38.6
			c5.8,11.7,14-8.2,14-8.2s-28.1-36.3-46.8-53.8s-33.9-32.7-33.9-32.7s58.5-49.1,63.2-62C232.4,462.6,226,413.2,226,413.2z"/>
		<path class="st8" d="M175,475.1c-1.5,2.7-3.1,5.6-4.6,8.6c-0.6,1.1-1.1,2.2-1.7,3.2c6,10.4,14.4,19.2,24.5,25.4
			c4.6-4.2,9.3-8.5,13.6-12.7C194.7,493,182.1,486.2,175,475.1z"/>
		<path class="st13" d="M185.6,457.1c-3.4,5.3-7,11.3-10.7,18c7.2,11.1,19.7,17.9,31.9,24.5c4.8-4.6,9.2-9.1,12.8-13.1
			C205.4,482.3,194.7,470,185.6,457.1z"/>
		<path class="st8" d="M226,413.2c0,0-8.9,3.6-22.9,19.9c6.8,6.1,16.2,9.7,25.9,12.5C228.1,429.4,226,413.2,226,413.2z"/>
		<path class="st13" d="M203.2,433.2c-2.5,3-5.2,6.3-8.1,10.1c7.7,14.2,17.9,26.8,31.7,33.9c0.4-0.6,0.7-1.2,0.9-1.8
			c2-5.5,2-17.7,1.3-29.9C219.3,442.9,210,439.2,203.2,433.2z"/>
		<path class="st8" d="M195.1,443.3c-3,4-6.1,8.6-9.4,13.8c9.1,12.9,19.7,25.2,34,29.4c3.3-3.7,5.8-6.8,7.2-9.3
			C213,470.1,202.8,457.5,195.1,443.3z"/>
		<path class="st12" d="M322.4,302.4c0,0,3.5,11.7,3.5,15.2s-3.5,8.2-1.2,12.9c2.3,4.7,2.3,18.7-3.5,30.4s-24.6-8.2-24.6-8.2
			l-3.5-30.4l8.2-12.9l5.8-5.8L322.4,302.4z"/>
		<path class="st9" d="M349.3,592.5c0,0-58.6,3.1-89.7-3.5l-5.6-1.8c0,0-48,36.3-30.4,90.1c0,0-3.5,94.7,24.6,142.7
			c0,0,2.3,25.7-2.3,39.8c-4.7,14-14,35.1-3.5,63.2c2,5.2,3.2,10.5,4,15.5c10.9,2.7,22.5,0.9,31.3-6.1c0.2-6.4,0.5-12.8,1-18.7
			c2.3-28.1,10.5-42.1,15.2-76c0.7-5.4,1.3-12.9,1.6-21.7c1.1,9,2.3,17.1,3.7,23.5c0,0-9.4,32.7-5.8,73.7
			c1.3,15.4,3.1,30.6,4.8,44.2c11,2.5,22.5,2.2,32.8-1.5c2.7-58.8,11.7-93.7,18.5-117.6C356.3,813.5,385.6,674.3,349.3,592.5z"/>
		<path class="st12" d="M253.4,586.6c0,0,52.6,32.7,95.9,5.8c0,0-3.5-15.2-4.7-26.9s7-104.1,4.7-115.8c-2.3-11.7-2.3-30.4-26.9-37.4
			s-28.1-17.5-29.2-37.4s-36.3-7-36.3-7s5.8,30.4-11.7,35.1s-43.3,26.9-38.6,51.5c4.7,24.6,37.4,70.2,42.1,95.9
			C253.4,576.1,253.4,586.6,253.4,586.6z"/>
		<path class="st8" d="M345,431.2c-3.2-7.7-9.2-15-22.6-18.8c-2.7-0.8-5.1-1.6-7.2-2.4c-27.9,5.7-56.7,5.8-84.6,0
			c-6,4-11.9,9.4-16.4,15.6C254.3,440.2,301.6,439,345,431.2z"/>
		<path class="st13" d="M348.8,483.6c0.3-6.3,0.6-12.2,0.8-17.3c-45.6,15.4-95.8,13.3-140.1-2.1c3.2,8.6,8.2,18.7,13.7,29.1
			C264.1,503.1,311.9,502,348.8,483.6z"/>
		<path class="st8" d="M261,527.5c29.7,1.6,58.9-6.2,86.4-19.1c0.5-8.5,1-17,1.4-24.8c-36.9,18.4-84.7,19.5-125.7,9.8
			c5,9.5,10.2,19.2,14.8,28.5C245.4,524.9,253.1,527.1,261,527.5z"/>
		<path class="st13" d="M345.8,534.3c0.5-8.1,1-17,1.6-25.9c-27.5,13-56.6,20.7-86.4,19.1c-7.9-0.5-15.6-2.7-23.1-5.7
			c5.2,10.6,9.3,20.5,10.8,28.4C280.8,556.8,315.9,549.2,345.8,534.3z"/>
		<path class="st8" d="M344.5,561.4c0-5.7,0.6-15.5,1.2-27.1c-29.8,14.8-64.9,22.5-97,15.9v0.1c1,5.3,1.7,9.9,2.3,14
			C282.1,570,314.3,569.5,344.5,561.4z"/>
		<path class="st13" d="M346.4,578.1c-0.7-4.1-1.4-8.5-1.8-12.5c-0.1-0.9-0.1-2.3-0.1-4.1c-30.3,8.1-62.5,8.6-93.5,2.9
			c1.4,9.3,2,15.4,2.2,18.8C282.9,595.2,317.4,592.4,346.4,578.1z"/>
		<path class="st8" d="M253.3,583.1c0.2,2.4,0.2,3.5,0.2,3.5s52.6,32.7,95.9,5.8c0,0-1.5-6.5-2.9-14.4
			C317.4,592.4,282.9,595.2,253.3,583.1z"/>
		<path class="st8" d="M209.5,464.3c44.3,15.4,94.5,17.5,140.1,2.1c0.3-8.1,0.2-14.1-0.3-16.6c-0.2-0.9-0.3-1.7-0.5-2.7
			c-13.6,2.4-27.6,3.7-41,5.6c-33.8,4.7-69.2,0.3-101.2-10.1c-0.7,3.8-0.8,7.8,0,11.8C207.2,457.4,208.2,460.7,209.5,464.3z"/>
		<path class="st13" d="M307.8,452.7c13.4-1.9,27.4-3.2,41-5.6c-0.8-4.8-1.6-10.5-3.8-15.9c-43.4,7.9-90.7,9-130.8-5.6
			c-3.7,5.2-6.5,11-7.6,17.1C238.6,453,274,457.4,307.8,452.7z"/>
		<path class="st13" d="M315.2,409.9c-6.6-2.5-11.1-5.5-14.3-9.1c-11.2,8.2-26.6,11.3-39.9,9.8c-4.8-0.8-10.6-3.7-13.5-8.5
			c-0.7,0.3-1.5,0.6-2.3,0.8c-4.5,1.2-9.6,3.6-14.6,6.9C258.5,415.8,287.3,415.6,315.2,409.9z"/>
		<path class="st12" d="M322.4,413.5c0,0,37.4,2.3,39.8,37.4c2.3,35.1,9.4,90.1,9.4,90.1s-3.5-2.3,11.7-35.1
			c15.2-32.7,11.7-44.4,16.4-57.3c4.7-12.9,5.8-37.4,8.2-35.1c2.3,2.3,4.7,12.9,4.7,22.2c0,0,14-5.8,17.5,2.3
			c3.5,8.2,4.7,23.4-3.5,29.2c-8.2,5.8-14,14-17.5,22.2s-18.7,99.4-37.4,97.1c-18.7-2.3-52.6-125.1-52.6-125.1
			S306,421.7,322.4,413.5z"/>
		<path class="st13" d="M328.8,494.7c2,6.4,4.3,13.4,6.7,20.5c0.9-0.1,1.8-0.3,2.7-0.5c9.8-2,21.1-7.2,28.5-14.9
			c-0.5-4.5-1-9.1-1.5-13.8C354.2,492.6,341.4,495.7,328.8,494.7z"/>
		<path class="st8" d="M322.4,473.5c1.7,5.7,3.9,13,6.4,21.2c12.5,1,25.4-2.1,36.4-8.7c-0.7-7.3-1.4-14.6-2-21.7
			C352,471.8,336.4,474.5,322.4,473.5z"/>
		<path class="st13" d="M316,449.8c1.3,6.7,2.9,11.6,2.9,11.6s1.3,4.6,3.5,12.1c14,0.9,29.6-1.8,40.8-9.2c-0.4-4.6-0.7-9.1-1-13.4
			c-0.3-4.8-1.3-8.9-2.7-12.6C346.3,445.7,330.7,450.5,316,449.8z"/>
		<path class="st8" d="M316,449.8c14.7,0.7,30.3-4.1,43.5-11.5c-2.7-6.8-6.9-11.7-11.7-15.3c-10.5,5.2-22.1,7.7-33.6,8.5
			C313.9,437.7,314.9,444.4,316,449.8z"/>
		<path class="st13" d="M314.1,431.6c11.6-0.8,23.2-3.3,33.6-8.5c-11.4-8.7-25.4-9.6-25.4-9.6C316.5,416.5,314.4,423.7,314.1,431.6z
			"/>
		<g>
			<path class="st14" d="M258.6,700.7c-4.6,0-9.3-1.3-13.6-4.8c-0.4-0.3-0.8-1-0.6-1.6c0.1-0.5,0.6-0.9,1.1-0.9c0.3,0,0.5,0,0.8,0.2
				c0.5,0.3,0.8,0.8,0.9,1c0,0.1,0.1,0.1,0.1,0.2c0.1,0,0.1,0.1,0.2,0.1c10.4,7.2,22.6,2,31.1-3.9c0.5-0.4,1.3-0.2,1.6,0.3
				c0.4,0.5,0.2,1.3-0.3,1.6C273.9,696.9,266.3,700.7,258.6,700.7z"/>
			<path class="st14" d="M301.9,704.7c-4.8,0-9.3-1.2-13.2-3.5c-13-7.6-16.4-24.8-16.5-25.5c-0.1-0.6,0.3-1.2,0.9-1.4
				c0.6-0.1,1.2,0.3,1.4,0.9c0,0.2,3.3,16.9,15.4,23.9c6.6,3.8,14.7,4.1,24,0.9c0.6-0.2,1.3,0.1,1.5,0.7c0.2,0.6-0.1,1.3-0.7,1.5
				C310.1,703.9,305.9,704.7,301.9,704.7z"/>
			<path class="st14" d="M294.9,816.4c-0.6,0-1.1-0.4-1.2-1c-9.3-54.4-9.4-115.4-9.4-116s0.5-1.2,1.2-1.2c0.6,0,1.2,0.5,1.2,1.2
				c0,0.6,0.1,61.4,9.3,115.6c0.1,0.6-0.3,1.2-1,1.3C295.1,816.4,295,816.4,294.9,816.4z"/>
			<path class="st14" d="M303.4,616c-11,0-20.4-1.9-27.9-4.2c-17.6-5.4-27.8-14-28.2-14.4c-0.5-0.4-0.5-1.2-0.1-1.6
				c0.4-0.5,1.2-0.5,1.6-0.1c0.4,0.3,41.1,34.3,98.2,8c0.6-0.3,1.3,0,1.6,0.6c0.3,0.6,0,1.3-0.6,1.6
				C331.5,613.4,316.4,616,303.4,616z"/>
			<path class="st14" d="M258.8,604.7L258.8,604.7c-0.7,0-1.2-0.5-1.2-1.2c0.1-5,3.5-9.8,3.6-10c0.4-0.5,1.1-0.6,1.6-0.3
				c0.5,0.4,0.6,1.1,0.3,1.6c0,0-3.1,4.3-3.2,8.6C259.9,604.2,259.4,604.7,258.8,604.7z"/>
			<path class="st14" d="M267.2,608.7L267.2,608.7c-0.7,0-1.2-0.6-1.2-1.3c0.4-5.6,3.2-10.2,3.3-10.4c0.3-0.6,1.1-0.7,1.6-0.4
				c0.6,0.3,0.7,1.1,0.4,1.6c0,0-2.6,4.3-3,9.3C268.4,608.3,267.9,608.7,267.2,608.7z"/>
			<path class="st14" d="M283.9,614c-0.6,0-1.1-0.5-1.2-1.1c-0.5-6.2,1.7-10.8,1.8-11c0.3-0.6,1-0.8,1.6-0.5s0.8,1,0.5,1.6
				c0,0-2,4.3-1.5,9.8C285.1,613.4,284.7,613.9,283.9,614C284,614,284,614,283.9,614z"/>
			<path class="st14" d="M294.2,615.6c-0.6,0-1.1-0.4-1.2-1c-0.8-4.6,0.7-10,0.8-10.2c0.2-0.6,0.8-1,1.4-0.8s1,0.8,0.8,1.4
				c0,0.1-1.4,5.1-0.7,9.2C295.4,614.8,295,615.4,294.2,615.6C294.3,615.6,294.3,615.6,294.2,615.6z"/>
			<path class="st14" d="M314.1,615.6c-0.1,0-0.1,0-0.2,0c-0.6-0.1-1.1-0.7-1-1.3c0.4-3-0.4-8.1-0.5-8.2c-0.1-0.6,0.3-1.2,1-1.3
				c0.6-0.1,1.2,0.3,1.4,1c0,0.2,0.9,5.6,0.5,8.9C315.2,615.2,314.7,615.6,314.1,615.6z"/>
			<path class="st14" d="M322.6,614.1c-0.1,0-0.1,0-0.2,0c-0.6-0.1-1.1-0.7-1-1.3c0.7-4.2-0.7-7.5-0.7-7.6c-0.3-0.6,0-1.3,0.6-1.5
				c0.6-0.3,1.3,0,1.5,0.6c0.1,0.2,1.7,4,0.9,8.9C323.7,613.7,323.2,614.1,322.6,614.1z"/>
			<path class="st14" d="M318.3,690.1c-0.2,0-0.5-0.1-0.7-0.2l-25.7-18.7c-0.3-0.2-0.4-0.5-0.5-0.8c0-0.2-2.3-20.3,2.4-37.9
				c0.2-0.6,0.8-1,1.4-0.8c0.3,0.1,33.7,8.1,47.3,3.5c0.4-0.1,0.7-0.1,1.1,0.2c0.3,0.2,0.5,0.6,0.5,0.9v38.6c0,0.4-0.2,0.8-0.6,1
				l-24.6,14C318.7,690.1,318.5,690.1,318.3,690.1z M293.7,669.6l24.7,18l23.3-13.3v-36.4c-13.5,3.4-40.1-2.3-45.9-3.7
				C292,649.5,293.4,666.5,293.7,669.6z"/>
			<path class="st14" d="M272.7,662L272.7,662c-0.7,0-1.2-0.6-1.2-1.2c1.2-25.7,8-39.7,8.3-40.2c0.3-0.6,1-0.8,1.6-0.5
				s0.8,1,0.5,1.6c-0.1,0.1-6.9,14.2-8.1,39.3C273.9,661.6,273.3,662,272.7,662z"/>
			<path class="st14" d="M242.3,676.1c-0.3,0-0.7-0.1-0.9-0.4l-12.9-15.2c-0.1-0.1-0.2-0.3-0.2-0.4c-0.2-0.8-5.9-19.4,5.9-40.7l0,0
				c0.7-1.2,1.7-0.9,8.3,1.4c7.2,2.5,18.2,6.2,25.5,6.2c0.3,0,0.7,0.1,0.9,0.4c0.2,0.3,0.3,0.6,0.3,0.9l-4.7,30.4
				c0,0.3-0.2,0.6-0.4,0.7L243,675.8C242.8,676,242.6,676.1,242.3,676.1z M230.5,659.1l12,14.2l19.8-15.4l4.4-28.6
				c-7.6-0.4-17.9-3.9-24.9-6.3c-2.3-0.8-4.7-1.6-5.8-1.9C225.8,640,229.9,657,230.5,659.1z M236.3,620.5L236.3,620.5L236.3,620.5z
				 M235.3,619.9L235.3,619.9L235.3,619.9z"/>
		</g>
		<path class="st12" d="M340.8,990c-0.6-1.4-1.7-2.2-3.5-2.1c-1,0.1-1.8,0.7-2.7,1.1c-2,0.9-3.7,0.7-5.3,0.2
			c0.4-7.2,0.8-16.5,1.3-28.4c0.2-4,0.3-7.9,0.5-11.6c-9.7,5.1-22.6,6-32.7,2.9c-0.4-0.1-0.7-0.2-1.1-0.3c3.1,25,6,45.3,5.2,52.3
			c-0.2,2,0,3.8,0.6,5.3c0.1,0.3,0.1,0.7,0.2,1c0.4,1.8,0.5,4.3,2.2,5.4c2.2,1.5,5.1,1.3,7.7,0.8c6.4-1.2,12.7-3.5,18.4-6.7
			c3-1.7,5.9-3.8,7.7-6.7C340.4,1001,342.4,993.7,340.8,990z"/>
		<path class="st12" d="M282.4,956.3c-1.6-0.6-3.5-0.3-5.1-1c-5-2.2-2.4-10.3-1.7-14.9c0.4-2.9,1-5.9,1.5-8.8
			c0.1-0.7,0.6-4.6,0.8-4.8c-7.4,6.8-19.4,8.1-30.8,6.4c-0.6-0.2-1.2-0.4-1.7-0.6c5.4,24-0.5,45.5,15.1,46.2c0.5,0.1,1,0.1,1.4,0
			c2.2-0.1,4.1-0.8,5.7-2c4.5-1.9,8.6-4.5,12.3-7.7c1.5-1.3,3-2.8,3.9-4.7c1-2.1,1.9-4.8,0.5-6.9C283.7,957,283.1,956.6,282.4,956.3
			z"/>
		<path class="st8" d="M330.6,376.1c1.1,0.3-18.7-24.6-11.7-48s15.2-31.6,3.5-46.8c-11.7-15.2-60.8-28.1-92.4-2.3
			s-17.5,78.4-3.5,91.2s30.4,17.5,46.8,17.5C289.7,387.8,318.9,372.6,330.6,376.1z"/>
		<path class="st12" d="M314.2,345.7c0,0,0-22.2-5.8-23.4c-5.8-1.2-9.4,5.8-8.2,11.7S309.6,360.9,314.2,345.7z"/>
	</g>
	<path class="st15" d="M355.2,995.9c-9.4,5.8-19.9,10.5-21.1,5.8s-8.2-1.2-8.2-5.8s1.2-33.9,0-62s9.4-76,21.1-118.1
		s11.7-120.5,11.1-141.5c-0.6-21.1-11.1-57.3-19.3-85.4c-8.2-28.1-0.1-64.4-0.1-64.4l7.1,18.8l0.9,2.7c7.5,19,15.4,34.8,21.9,39.3
		l0,0c12.8,2.8,29.3-71.8,33.9-89.4c4.7-17.5,12.9-24.6,19.9-31.6s4.7-10.5,4.7-22.2s-14-4.7-17.5-3.5s-1.2-8.2,0-15.2
		c0.5-2.9,0.2-5.6-0.4-7.8c-0.4-1-0.9-1.7-1.3-2.1c-2.3-2.3-3.5,22.2-8.2,35.1s-1.2,24.6-16.4,57.3c-9.5,20.5-11.7,29.1-12,32.6
		c-0.2-1.4-0.4-3.3-0.7-5.7c-5.1-0.5-12.4-54.5-13.6-80.2s-30.4-29.2-49.1-37.4c-18.7-8.2-19.4-30-19.4-30l5.3-1.6l0.2,0.1v-0.1
		c14.1-4.2,29-9.8,36.6-7.5c0.2,0.1-0.2-0.5-0.8-1.5c-8.8-6.5-16.4-21.4-20.1-23.5c-3.9-2.2-7.7-27-3.1-29.3
		c4.7-2.3,8.2,17.5,7.5,9.2s6.6-16.2,7.7-38.5c1.1-20.4-44.6-27.1-52-28c-13.8,0.7-28,5-39.8,14.6c-31.6,25.7-17.5,78.4-3.5,91.2
		c9.5,8.7,20,13.6,30.8,15.9c-1,6.6-3.6,13.2-9.8,16c-0.3,0.2-0.7,0.3-1.1,0.4c-0.4,0.1-0.8,0.3-1.3,0.4c-0.6,0.1-1.1,0.3-1.7,0.5
		c-0.1,0-0.2,0.1-0.4,0.1c-0.5,0.2-0.9,0.3-1.4,0.5c-0.1,0-0.2,0.1-0.3,0.1c-0.5,0.2-1,0.4-1.5,0.6c-0.1,0-0.1,0.1-0.2,0.1
		c-0.5,0.2-1.1,0.5-1.6,0.7c0,0-0.1,0-0.1,0.1c-0.6,0.3-1.2,0.6-1.8,0.9l0,0c-2.6,1.4-5.2,3-7.8,4.8c0,0-0.1,0-0.1,0.1
		c-0.8,0.6-1.5,1.1-2.3,1.7l0,0c0,0-22.8,9.1-53.2,65.8c-0.1,0.2-0.2,0.4-0.4,0.7c-0.7,1.3-1.4,2.7-2.1,4c-0.6,1.1-1.1,2.2-1.7,3.2
		C141,539.7,133,543.3,133,543.3s32.7,38.6,52.6,50.3c15.7,9.2,31.4,20.7,40.2,30.8c-6,14.4-8.9,32.3-2.2,52.8
		c0,0-3.5,94.7,24.6,142.7c0,0,2.3,25.7-2.3,39.8c-4.7,14-14,35.1-3.5,63.2c1.3,3.3,2.2,6.7,2.9,10l0,0c2.6,11.6,2.6,22.7,3.6,31.1
		l0,0c0,0-3.6,22.7,5.7,23.9c9.4,1.2,14,0,23.4-8.2c6.5-5.6,14.3-9.4,21-14.7c2.4,18.8,4.2,33.5,3.6,39.3c-0.2,2,0,3.8,0.6,5.3
		c0.1,0.3,0.1,0.7,0.2,1s0.1,0.5,0.2,0.8c-3.5,23,24,12.6,48.1-3.5c6.7-4.5,10.3-9.1,11.8-13.2C361.3,993.7,358.5,993.8,355.2,995.9
		z M254,587.2c0,0-10.8,8.2-20.2,22.5c-0.2-0.2-0.4-0.4-0.5-0.6l-2.6,6.6c0,0-31-38.3-41.5-47.7s-32.7-28.1-32.7-28.1
		s17.5-18.7,32.7-33.9c15.2-15.2,30.4-19.9,30.4-19.9l-0.1,0.8c0.1-0.1,0.2-0.2,0.3-0.3c3.1,6,6.3,12.2,9.6,18.3
		c0.3,0.6,0.6,1.2,0.9,1.8c0.2,0.4,0.4,0.8,0.6,1.2c2.5,4.7,4.9,9.4,7.1,14c1.3,2.6,2.5,5.1,3.6,7.6c0,0.1,0.1,0.2,0.1,0.3
		c0.5,1.2,1,2.3,1.5,3.5c0,0.1,0.1,0.1,0.1,0.2c1,2.4,1.9,4.7,2.7,6.9c0.1,0.2,0.1,0.4,0.2,0.6c0.3,0.9,0.6,1.7,0.8,2.6
		c0.1,0.3,0.2,0.6,0.3,0.8c0.2,0.8,0.4,1.6,0.6,2.3c0.1,0.2,0.1,0.5,0.2,0.7c0.2,1,0.5,1.9,0.6,2.9v0.1c0.2,1.2,0.4,2.4,0.6,3.5
		c0,0.2,0.1,0.4,0.1,0.6c0.2,1.1,0.4,2.2,0.6,3.2c0,0.1,0,0.2,0.1,0.3c0.4,2.2,0.7,4.4,1,6.3c1.4,9.3,2,15.4,2.2,18.8
		c0.2,2.4,0.2,3.5,0.2,3.5s0.5,0.3,1.5,0.9L254,587.2z M293.2,912.9c0.9,10,1.9,20,3,29.5l1.8,14.7c0,0-10.7,6.1-16.5,12
		c-5.8,5.8-14,2.3-11.7-2.3c2.3-4.7-1.2-18.7,0-24.6s1.2-48,8.2-64.3s15.4-64.6,15.4-64.6c0.8,3.2,1.3,6.4,1.6,9.7
		c0.1-2.1,0.2-4.3,0.3-6.6h0.1c1.1,8.8,2.3,16.7,3.6,22.9C299,839.2,289.7,872,293.2,912.9z"/>
</g>
<g>
	<path class="st9" d="M423.2,542l8.2-38.3l6.3,1.5l-1.1,40l-0.2,1.8l-13.4-3.1L423.2,542z M431,482l12.2,2.9l-1.7,14.2l-12.2-2.9
		L431,482z"/>
	<path class="st9" d="M443.9,517v-0.2c2.1-17.6,15.5-29.3,31.4-25.6c9.5,2.2,14.8,6.6,19.7,13.4l-8.5,8.6c-3.6-4.9-6.9-8.1-13-9.5
		c-8.4-2-16.2,5.2-17.4,15.8v0.2c-1.4,11.3,4.3,21.2,13.6,23.4c4.2,1,8.1,0.6,11.3-1.2l1.1-8.9l-11.7-2.7l1.4-11.8l22.9,5.4
		l-3.2,26.9c-6.1,4.1-14,6.8-23.7,4.6C451.4,551.5,441.7,535.3,443.9,517z"/>
	<path class="st9" d="M500.3,513.1l11.4,2.7l-1.1,9.6c3.1-6,7.4-9.4,14.1-7.4l-1.7,14l-0.6-0.1c-7.6-1.8-12.9,2.5-14.3,13.9
		l-2.1,17.5l-11.4-2.7L500.3,513.1z"/>
	<path class="st9" d="M517.8,552v-0.2c1.2-10.4,8.5-13.6,18-11.3c4.1,1,6.9,2.4,9.6,4.3l0.1-0.8c0.7-5.6-1.9-9.4-7.6-10.7
		c-4.4-1-7.6-0.8-11.4,0l-1.6-10.9c4.7-1.3,9.3-1.7,16.1-0.1c6.2,1.5,10.5,4.5,13,8.5c2.6,4.2,3.3,9.8,2.6,16.2l-3.3,27.5l-11.1-2.6
		l0.6-5.1c-3.2,3-7.3,4.5-12.9,3.2C522.3,568,516.7,561.4,517.8,552z M544.4,555.1l0.3-2.4c-1.8-1.5-4.3-2.8-7.1-3.5
		c-4.9-1.1-8.2,0.4-8.7,4.7v0.2c-0.4,3.6,1.9,6.4,5.6,7.2C539.8,562.6,543.8,559.9,544.4,555.1z"/>
	<path class="st9" d="M558.3,551.4v-0.2c1.6-13.5,11.7-22.6,24.1-19.7c7.6,1.8,12,5.9,15.1,11.7l-8.1,7.2c-2.2-3.8-4.5-6.4-8.6-7.4
		c-5.7-1.3-10.5,3.6-11.3,10.6v0.2c-0.9,7.3,2.4,14,8.7,15.5c3.8,0.9,6.7-0.4,9.9-2.9l5.7,9.5c-4.5,4.1-9.5,6.7-17.5,4.8
		C564.2,578,556.7,565,558.3,551.4z"/>
	<path class="st9" d="M602.7,519.5l12,2.8l-1.4,12l-12-2.8L602.7,519.5z M600.9,536.8l11.4,2.7l-5.7,47.5l-11.4-2.7L600.9,536.8z"/>
	<path class="st9" d="M611,573.9v-0.2c1.2-10.4,8.5-13.6,18-11.3c4.1,1,6.9,2.4,9.6,4.3l0.1-0.8c0.7-5.6-1.9-9.4-7.6-10.7
		c-4.4-1-7.6-0.8-11.4,0l-1.6-10.9c4.7-1.3,9.3-1.7,16.1-0.1c6.2,1.5,10.5,4.5,13,8.5c2.6,4.2,3.3,9.8,2.6,16.2l-3.3,27.5l-11.1-2.6
		l0.6-5.1c-3.2,3-7.3,4.5-12.9,3.2C615.5,589.9,609.9,583.3,611,573.9z M637.6,577l0.3-2.4c-1.8-1.5-4.3-2.8-7.1-3.5
		c-4.9-1.1-8.2,0.4-8.7,4.7v0.2c-0.4,3.6,1.9,6.4,5.6,7.2C633,584.4,637.1,581.8,637.6,577z"/>
	<path class="st9" d="M648.3,590.2l5.9-7.7c3.9,4.7,8.3,7.8,12,8.6c3.3,0.8,5-0.3,5.2-2.4v-0.2c0.3-2.9-3.4-4.8-7.7-7.4
		c-5.4-3.3-11.4-7.9-10.3-17.1v-0.2c1.2-9.7,8.4-13.5,16.5-11.6c5.1,1.2,10.4,4.5,14.4,9l-5.5,8.3c-3.7-3.7-7.4-6.3-10.4-7
		c-2.8-0.7-4.4,0.4-4.6,2.3v0.2c-0.3,2.7,3.4,4.8,7.5,7.6c5.4,3.5,11.5,8.3,10.5,16.9v0.2c-1.3,10.5-8.5,13.7-17.2,11.7
		C659.1,600.1,653,596.4,648.3,590.2z"/>
	<path class="st9" d="M690.3,544.6l0.2-1.8l13.4,3.1l-0.2,1.8l-8.2,38.3l-6.3-1.5L690.3,544.6z M685.4,590.8l12.2,2.9l-1.7,14.2
		l-12.2-2.9L685.4,590.8z"/>
</g>
</svg>
