<?xml version="1.0" encoding="utf-8"?>
<!-- Generator: Adobe Illustrator 23.0.6, SVG Export Plug-In . SVG Version: 6.00 Build 0)  -->
<svg version="1.1" id="Capa_1" xmlns="http://www.w3.org/2000/svg" xmlns:xlink="http://www.w3.org/1999/xlink" x="0px" y="0px"
	 viewBox="0 0 749.7 1080" style="enable-background:new 0 0 749.7 1080;" xml:space="preserve">
<style type="text/css">
	.st0{opacity:0.74;fill:url(#SVGID_1_);}
	.st1{fill:#A16C38;}
	.st2{fill:#EEC9AD;}
	.st3{fill:#B9E6E9;}
	.st4{opacity:8.000000e-02;fill:#150D27;}
	.st5{fill:#150D27;}
	.st6{fill:#7693A2;}
	.st7{opacity:0.51;fill:#150D27;}
	.st8{fill:#9D999E;}
	.st9{fill:#211932;}
	.st10{fill:#CD4834;}
	.st11{opacity:0.15;fill:#150D27;}
	.st12{opacity:0.74;fill:url(#SVGID_2_);}
	.st13{fill:#C6C0C3;}
	.st14{fill:#FFFFFF;}
	.st15{opacity:0.4;}
	.st16{opacity:0.6;fill:#B9E6E9;}
	.st17{opacity:0.62;fill:#FFFFFF;}
	.st18{opacity:0.6;fill:#CD4834;}
	.st19{opacity:0.36;fill:url(#SVGID_3_);}
	.st20{fill:#EDF8F9;}
</style>
<linearGradient id="SVGID_1_" gradientUnits="userSpaceOnUse" x1="364.0248" y1="957.4576" x2="364.0248" y2="68.0394" gradientTransform="matrix(1 -9.626879e-05 9.626879e-05 1 -0.204 0.4079)">
	<stop  offset="0" style="stop-color:#CBECEF"/>
	<stop  offset="1" style="stop-color:#CBECEF;stop-opacity:0"/>
</linearGradient>
<path class="st0" d="M700.8,0L26.8,0l0.1,1045h0.2c0,0.1-0.1,0.2-0.1,0.3c0,10.6,150.9,19.3,336.9,19.2
	c186.1,0,336.9-8.7,336.9-19.3c0-0.1,0-0.2-0.1-0.3h0.1L700.8,0z"/>
<g>
	<path class="st1" d="M332.8,873.3c-1.8,1.8-3.6,8-9.8,13.4c-6.2,5.4-9.8,5.4-9.8,5.4s-4.5,19.6-33.9,32.1s-107.1,48.2-148.1,6.2
		c-41-41.9,118.7-66.9,131.2-72.3c12.5-5.4,30.3-13,37-4.7c0,0,15.6-1.5,22.8-3.3C329.3,848.3,332.8,873.3,332.8,873.3z"/>
	<path class="st2" d="M330.8,866.9c-0.3-0.5-0.5-0.9-0.8-1.3c-0.8-1.2-2-2.2-3.5-2.4c-0.6,2-1.3,3.9-1.9,5.9
		c-0.4,1.2-0.8,2.4-1.3,3.5c-2.2,4.5-7,6-11,8.6c-3.8,2.4-7.8,4.9-10.4,8.8c-3.3,4.9-0.6,11.6,1,18.6c8.6-8.8,10.3-16.5,10.3-16.5
		s3.6,0,9.8-5.4c6.2-5.4,8-11.6,9.8-13.4C332.5,871.1,331.9,868.9,330.8,866.9z"/>
	<path class="st1" d="M191.7,605.2l10.6,105.5c0,0,6.4,38.5,38.7,32.8c32.2-5.7,21.2-36.2,22.1-38.9c0.9-2.7-11.5-101.9-11.5-101.9
		L191.7,605.2z"/>
	<path class="st3" d="M191.7,605.2l10.6,105.5c0,0,3.3,19.9,17.2,29c-10.4-44.2-21-89.1-21.7-134.8L191.7,605.2z"/>
	<path class="st4" d="M191.7,605.2l3.6,36c21,6,39.7,18.7,55.4,34.2c5.5,6,8.9,12.8,11.8,19.9c-2.5-25.2-10.9-92.6-10.9-92.6
		L191.7,605.2z"/>
	<path class="st1" d="M266,643.1c-13.5,7.8-32.2,3.9-43.2,22.4c-11,18.5-6.2,47.3,17.7,55.7s38.8-21.6,42.6-38.5
		C287,665.8,266,643.1,266,643.1z"/>
	<path class="st3" d="M250.1,648.5c-10,2.4-20.3,5.1-27.4,17c-5.2,8.7-6.9,19.7-4.7,29.7c1.1-9.6,4.6-18.7,11.3-26.5
		C235.7,661.5,242.4,654.7,250.1,648.5z"/>
	<path class="st4" d="M266,643.1c-4.9,2.8-10.5,4.1-16.2,5.5c3.9,14.4-0.4,30.5-6.6,43.6c-3.7,8.2-14,10-23.8,7.9
		c3.3,9.3,10.2,17.3,21,21.1c23.9,8.4,38.8-21.6,42.6-38.5C287,665.8,266,643.1,266,643.1z"/>
	<path class="st5" d="M165.6,618.1c1.8,0,89.3-4.6,89.3-4.6l13,121.6l167.8,0.4l94.8-12.6l-0.3-179.4l4.2-35.6l-14.9-62.7
		c0,0-0.5-23.2-33.3-34.5c-32.8-11.3-76.1-37.1-76.1-37.1s-40.2,52.8-109.7-2c-14.3,7.1-28.6,14.2-43,21.2
		c-9.3,4.6-18.9,8.8-27.9,14c-11.3,6.4-25,10.9-33.6,21c-12.4,14.7-17.1,34.3-18,53.1C175,541.5,165.6,618.1,165.6,618.1z"/>
	<path class="st5" d="M279.3,924.2c29.4-12.5,33.9-32.1,33.9-32.1c-14.3-2.7-11.6-11.6-11.6-11.6c8.9-12.5-2.7-26.8-2.7-26.8
		c0-0.2,0-0.5,0-0.7c-7-7.6-24.4-0.1-36.6,5.1c-12.5,5.4-172.2,30.3-131.2,72.3C172.2,972.3,249.9,936.6,279.3,924.2z"/>
	<path class="st6" d="M138.9,931c-5.5-2.1-11.4-6.4-14.3-12.5c0.5,3.8,2.6,7.8,6.6,11.9c41,41.9,118.7,6.2,148.1-6.2
		c17.7-7.5,26.4-17.6,30.5-24.4c-2.3,2.1-4.9,3.9-7.9,5.3C250.9,928,194.9,948,138.9,931z"/>
	<g>
		<path class="st3" d="M213.3,917.5c-1,0-1.9-0.7-2.2-1.7c-4.2-16-22.2-29-22.3-29.1c-1-0.7-1.2-2.1-0.5-3.1c0.7-1,2.1-1.2,3.1-0.5
			c0.8,0.6,19.4,14.1,24.1,31.6c0.3,1.2-0.4,2.4-1.6,2.7C213.7,917.4,213.5,917.5,213.3,917.5z"/>
		<path class="st3" d="M225.8,913.9c-1.1,0-2.1-0.8-2.2-2c-1.7-14.1-19.6-29.6-19.8-29.8c-0.9-0.8-1-2.2-0.2-3.1
			c0.8-0.9,2.2-1,3.1-0.2c0.8,0.7,19.4,16.8,21.3,32.7c0.1,1.2-0.7,2.3-2,2.5C225.9,913.9,225.9,913.9,225.8,913.9z"/>
		<path class="st3" d="M241.8,907.7c-1.1,0-2.1-0.8-2.2-2c-1.6-13.1-22-25.9-22.2-26c-1-0.7-1.4-2-0.7-3.1c0.7-1,2-1.4,3.1-0.7
			c0.9,0.6,22.3,14.1,24.2,29.3c0.2,1.2-0.7,2.3-1.9,2.5C242,907.6,241.9,907.7,241.8,907.7z"/>
		<path class="st3" d="M255.2,902.3c0,0-0.1,0-0.1,0c-1.2-0.1-2.2-1.1-2.1-2.4c0.8-14.3-21.5-22.7-21.7-22.8
			c-1.2-0.4-1.7-1.7-1.3-2.9c0.4-1.2,1.7-1.7,2.9-1.3c1,0.4,25.6,9.7,24.7,27.2C257.4,901.4,256.4,902.3,255.2,902.3z"/>
		<path class="st3" d="M267.7,897.8c-0.1,0-0.1,0-0.2,0c-1.2-0.1-2.1-1.2-2-2.4c0.7-7-1.8-13-7.4-18c-4.3-3.8-8.9-5.6-9-5.6
			c-1.2-0.4-1.7-1.7-1.3-2.9c0.4-1.2,1.7-1.8,2.9-1.3c0.2,0.1,21.2,8,19.3,28.2C269.8,897,268.9,897.8,267.7,897.8z"/>
		<path class="st3" d="M282,890.7c-1.2,0-2.2-0.9-2.2-2.1c-0.8-16.1-15.3-21.1-15.4-21.2c-1.2-0.4-1.8-1.7-1.4-2.8
			c0.4-1.2,1.6-1.8,2.8-1.4c0.2,0.1,17.5,6.1,18.5,25.2c0.1,1.2-0.9,2.3-2.1,2.3C282.1,890.7,282,890.7,282,890.7z"/>
	</g>
	<path class="st6" d="M241.8,723.4c2,0.4,167.7,26.8,289.1-10.7c121.3-37.5,9.8,52.6,9.8,52.6l-78.5,39.3l-68.7,25
		c0,0,1.8,27.7-74.1-11.6C243.6,778.7,154.4,704.7,241.8,723.4z"/>
	<path class="st7" d="M241.8,723.4c2,0.4,167.7,26.8,289.1-10.7c121.3-37.5,9.8,52.6,9.8,52.6l-78.5,39.3l-68.7,25
		c0,0,1.8,27.7-74.1-11.6C243.6,778.7,154.4,704.7,241.8,723.4z"/>
	
		<rect x="241.5" y="726" transform="matrix(0.9988 -4.904853e-02 4.904853e-02 0.9988 -35.6052 20.6737)" class="st3" width="323.9" height="19.6"/>
	
		<rect x="241.6" y="721" transform="matrix(0.9988 -4.904853e-02 4.904853e-02 0.9988 -35.3599 20.6715)" class="st8" width="323.9" height="19.6"/>
	<path class="st9" d="M300.4,371.5c0,0-12.3,37.3,8.6,65.3c0,0,30.4-40.3,53.1-40.4c0,0,37.5,18.9,43.2,44.9c0,0,20.4-42.5,4.8-67.7
		C410.1,373.5,339.9,358,300.4,371.5z"/>
	<path class="st10" d="M353.4,427.4c-1,1.8-9,120.8-9,120.8l40.7-6.5l-18.2-114L353.4,427.4z"/>
	<path class="st5" d="M313.9,167.1c-0.5,2.4-1.1,5.7-3.4,7c-2.2,1.2-4.5,0.9-6.8,1.4c-2.5,0.5-5.2,2-7.2,3.6
		c-4.5,3.5-7.1,9.9-4.5,15c0.7,1.3,1.7,2.5,2,4c0.9,4.4-4.4,7.1-7.6,10.1c-2.9,2.6-4.6,6.4-4.6,10.3c-0.1,3.9,1.4,7.6,2.8,11.2
		c2.3,5.9,4.4,12.3,2.7,18.3c-0.6,2.2-1.7,4.4-1.5,6.6c0.5,5.5,7.8,7.8,9.4,13.1c1.5,4.9-2.7,10.4-0.8,15.2c1.3,3.2,5,5.1,5.7,8.5
		c0.5,2.5-0.7,5.1-0.2,7.6c0.8,3.5,4.8,5.3,8.4,5.6c3.6,0.3,7.3-0.4,10.8,0.7c3.3,1.1,6,3.7,9.2,4.9c5.2,1.9,11.3,0.2,16.1,2.9
		c3.5,2,5.7,6,9.5,7.3c3.6,1.3,7.6-0.4,10.8-2.5c3.2-2.1,6.1-4.8,9.8-6c8.8-3,19.3,3.1,27.3-1.5c4.2-2.4,6.4-7.1,8.3-11.4
		c2.2-5,4.4-10,6.6-15c0.7-1.7,1.5-3.5,1.5-5.4c0-3-1.7-6.3-0.1-8.8c1.2-1.8,3.6-2.3,5.1-3.9c1.3-1.4,1.6-3.4,1.9-5.3
		c0.6-4.4,1.9-9.3,1.3-13.7c-0.5-4.4-2.7-8.5-2.2-13c0.3-3,1.8-5.7,2.1-8.7c0.3-3.4-1-6.8-2.3-10c-0.6-1.4-1.2-2.8-2.3-3.8
		c-1.2-1.2-3-1.6-4.3-2.7c-2.4-1.9-3.1-5.2-3-8.2s0.8-6,0.7-9c-0.2-4.2-2.2-8-4-11.8c-0.6-1.2-1.3-2.4-2.3-3.2c-1-0.7-2.3-1-3.4-1.5
		c-5.5-2.6-5.5-10.5-9.6-15.1c-3.5-4-9.5-4.7-14.8-4.4c-4.8,0.3-10.6,1.7-15.2-0.3c-4-1.7-7-4.5-10.6-6.8c-3.9-2.5-9.2-0.5-13.1,2.1
		c-3.8,2.7-7.5,6.1-12.2,6.6c-4.2,0.5-9-1.5-12.4,1C315,160,314.7,163.8,313.9,167.1z"/>
	<path class="st1" d="M300.4,371.5c0,0,17.2-12.2,13.9-76.5s87.5-52.9,81.1,8.6c0,0-1.2,65.1,14.8,69.9
		C410.1,373.5,362.6,433.4,300.4,371.5z"/>
	<path class="st1" d="M404.4,229.6c0,0-0.1-0.1-0.1-0.1c-0.5-1-0.6-2.1-0.9-3.1c-0.8-3.9-3.1-7.6-6.4-10c-1.3-1-2.8-1.9-3.4-3.4
		c-0.5-1.3-0.1-2.7-0.3-4c-1.1-5.4-10.9-6-10.7-11.5c0.1-1.5,0.9-2.8,1.3-4.2c0.3-1.4-0.2-3.3-1.7-3.5c-1,1.5-2,3.1-2.9,4.6
		c-1.2,1.9-2.4,3.8-4.1,5.3c-3.8,3.2-9.7,3.6-13.9,0.8c-4.1-2.8-6-8.5-4.4-13.2c-4.1,1.2-8.2,2.3-12.2,3.5c-1.3,0.4-2.7,0.8-3.8,1.6
		c-1.9,1.5-2.8,4.2-5.1,5c-1,0.3-2.1,0.2-3.2,0.5c-3.1,0.9-4.5,5.5-7.8,5.4c-2.4-0.1-5.3-2.8-6.8-0.9c-0.4,0.6-0.5,1.3-0.5,2.1
		c-0.3,5-1.8,10-4.3,14.4c-2.5,4.4-6.1,9.5-3.7,13.9c0.4,0.7,0.9,1.4,1,2.1c0.2,1.4-0.7,2.6-1.6,3.8c-1,1.4-1.9,2.9-2.6,4.5
		c0.1,2.3,0.3,4.7,0.6,7.1c0,0,0,50.9,17.5,67.2c17.6,16.4,56.5,31.4,71.5-8.5c15-39.9,10.5-36.4,9.1-61.4
		C405,242.1,404.9,235.9,404.4,229.6z"/>
	<path class="st11" d="M347.9,228c4,2,10-4,14-4c14.9-1.7,35.4,1.5,43,15.8c-0.1-3.3-0.3-6.7-0.5-10.2c0,0-0.1-0.1-0.1-0.1
		c-0.5-1-0.6-2.1-0.9-3.1c-0.8-3.9-3.1-7.6-6.4-10c-1.3-1-2.8-1.9-3.4-3.4c-0.5-1.3-0.1-2.7-0.3-4c-1.1-5.4-10.9-6-10.7-11.5
		c0.1-1.5,0.9-2.8,1.3-4.2c0.3-1.4-0.2-3.3-1.7-3.5c-1,1.5-2,3.1-2.9,4.6c-1.2,1.9-2.4,3.8-4.1,5.3c-3.8,3.2-9.7,3.6-13.9,0.8
		s-6-8.5-4.4-13.2c-4.1,1.2-8.2,2.3-12.2,3.5c-1.3,0.4-2.7,0.8-3.8,1.6c-1.9,1.5-2.8,4.2-5.1,5c-1,0.3-2.1,0.2-3.2,0.5
		c-3.1,0.9-4.5,5.5-7.8,5.4c-2.4-0.1-5.3-2.8-6.8-0.9c-0.4,0.6-0.5,1.3-0.5,2.1c-0.3,5-1.8,10-4.3,14.4c-2.5,4.4-6.1,9.5-3.7,13.9
		c0.4,0.7,0.9,1.4,1,2.1c0,0,0,0,0,0C319.5,225.1,335.7,221.9,347.9,228z"/>
	<path class="st1" d="M306.4,286.9c0,0,0-48.2-19.8-40.5C266.8,254,297.2,301.9,306.4,286.9z"/>
	<path class="st1" d="M419.5,249.7c-4.1-1.8-7.5-1-10.2,1.3c3.2,8.6,2.8,17.9,1.2,26.6c-0.3,1.5-0.8,2.9-1.4,4.3
		c-0.7,3.3-1.6,6.5-2.6,9.8C418.4,286.2,434.7,256.2,419.5,249.7z"/>
	<g>
		
			<ellipse transform="matrix(1.811391e-02 -0.9998 0.9998 1.811391e-02 88.6669 574.1139)" class="st5" cx="336.6" cy="241.9" rx="6.2" ry="4.5"/>
		
			<ellipse transform="matrix(1.811391e-02 -0.9998 0.9998 1.811391e-02 135.0966 623.1379)" class="st5" cx="384.8" cy="242.8" rx="6.2" ry="4.5"/>
		<path class="st5" d="M356.5,275.8c-1.1,0-1.8-0.1-1.9-0.1c-0.7-0.1-1.2-0.8-1.2-1.5c0.1-0.7,0.8-1.2,1.5-1.2c0.1,0,7.5,0.9,12.4-3
			c3-2.4,0.7-21.2-3.3-38c-0.2-0.7,0.3-1.4,1-1.6c0.7-0.2,1.4,0.3,1.6,1c1.4,6,8.2,36,2.4,40.7C364.9,275.5,359.4,275.9,356.5,275.8
			z"/>
		<path class="st5" d="M325.4,222.1c-0.8,0-1.7-0.3-2.4-0.9c-1.4-1.3-1.5-3.6-0.2-5c0.4-0.4,9-9.5,23.4-5.1c1.9,0.6,2.9,2.6,2.4,4.5
			s-2.6,2.9-4.5,2.4c-10.2-3.1-16,3-16,3.1C327.4,221.7,326.4,222.1,325.4,222.1z"/>
		<path class="st5" d="M396.3,224.3c-1,0-2-0.5-2.7-1.3c-4.7-5.9-9.6-5.1-12.8-4.5c-1.6,0.3-3.5,0.6-5-0.8c-1.5-1.3-1.6-3.6-0.2-5
			c0.9-1,2.2-1.3,3.3-1.1c0.2,0,0.4-0.1,0.6-0.1c3.7-0.7,12.3-2.2,19.6,7.1c1.2,1.5,1,3.8-0.6,5C397.9,224,397.1,224.3,396.3,224.3z
			"/>
		<path class="st5" d="M359.6,292.9c-17.1-0.3-31.6-8.8-31.8-8.9c-0.4-0.3-0.6-0.8-0.3-1.2c0.3-0.4,0.8-0.6,1.2-0.3
			c0.4,0.2,38,22.1,62.5-4.6c0.3-0.4,0.9-0.4,1.3-0.1c0.4,0.3,0.4,0.9,0.1,1.3C382.6,290,370.6,293.1,359.6,292.9z"/>
		<path class="st5" d="M361,300.7c-3.9-0.1-7-0.9-7.3-1c-0.5-0.1-0.8-0.6-0.6-1.1c0.1-0.5,0.6-0.8,1.1-0.6c0.1,0,10.3,2.7,16.2-1.4
			c0.4-0.3,1-0.2,1.2,0.2c0.3,0.4,0.2,1-0.2,1.2C368.3,300.3,364.4,300.8,361,300.7z"/>
	</g>
	
		<linearGradient id="SVGID_2_" gradientUnits="userSpaceOnUse" x1="606.9603" y1="473.3604" x2="606.9603" y2="222.5434" gradientTransform="matrix(1.0377 -4.075372e-02 3.924428e-02 0.9992 -272.2638 217.8868)">
		<stop  offset="0" style="stop-color:#CBECEF"/>
		<stop  offset="1" style="stop-color:#CBECEF;stop-opacity:0"/>
	</linearGradient>
	<polygon class="st12" points="554.5,569.8 254.6,581.6 94.9,352 630.9,305 	"/>
	<path class="st3" d="M245.2,523.5l9.7,191.4c0.6,7.6,7.2,13.4,14.8,13l283.1-13.6c7.8-0.4,13.8-6.9,13.5-14.7l-7.4-189.6
		c-0.3-7.9-6.9-14-14.8-13.6l-285.3,11.8C250.7,508.5,244.5,515.4,245.2,523.5z"/>
	<path class="st13" d="M245.2,520.5l9.7,191.4c0.6,7.6,7.2,13.4,14.8,13l283.1-13.6c7.8-0.4,13.8-6.9,13.5-14.7l-7.4-189.6
		c-0.3-7.9-6.9-14-14.8-13.6l-285.3,11.8C250.7,505.5,244.5,512.4,245.2,520.5z"/>
	<circle class="st14" cx="403.5" cy="616.6" r="17"/>
	<path class="st1" d="M533.2,583.3c-0.5-2,0.5-4.2,2.7-6c4.5-3.7,11.2-4.7,17-4.9c8-0.2,16.4-0.5,24.3,1c3.5,0.7,7.8,2.9,8.5,6.4
		c2.5,12.3-43.5,12-49.9,7.1C534.3,585.7,533.5,584.5,533.2,583.3z"/>
	<path class="st1" d="M578.4,589c-1.4-1.4-39.3,2-42.1,9.1c-2.8,7.1,1.6,11.6,8.7,12.7c0,0-5.4,2.6-3.8,11.5s10.2,27,20.9,27.2
		c10.7,0.2,17.8,0.3,19.8-11.2c2-11.6-2.6-6.3,0.3-18.7C585.3,607,587.2,598.1,578.4,589z"/>
	<path class="st3" d="M570.9,644c-6.1,1.5-13.2,1.5-19.3-0.6c3.1,3.5,6.7,5.9,10.6,6c10.7,0.2,17.8,0.3,19.8-11.2
		c0.1-0.5,0.2-1,0.2-1.5C579.4,640.2,575.8,642.9,570.9,644z"/>
	<path class="st1" d="M280,600.2c-2.6-0.4-5.1-1-7.8-1.1c-7-0.4-14.1,0.7-20.5,3.3c-1.9,0.8-3.8,1.7-5.2,3
		c-5.5,5.3-0.5,12.7-3.7,18.9c-0.8,1.3-1.8,2.4-2.7,3.6c-1.6,2.4-2.1,5.3-1.3,7.9c0.9,3.5,3.9,6.6,4.3,10.1
		c0.4,3.7-1.9,7.2-2.6,10.9c-0.1,0.6-0.2,1.1,0,1.7c0.5,1.4,2.6,1.9,3.6,3.1c1.2,1.5,0.4,3.5,0.1,5.3c-0.7,4,1.7,8.2,5.7,10.2
		c5.1,2.6,11.5,1.6,17.4,1.4c4.7-0.1,9.7,0.3,13.7-1.8c3.9-2,6.1-6.4,4.9-10.2c-1.1-3.8-5.3-6.9-9.9-7.1c2.9,0,5.7-1.3,7.6-3.2
		c1.9-1.9,3.1-4.2,3.8-6.6c0.6-2.2,0.9-4.7-0.2-6.8c-1.6-3.3-5.8-5-9.8-5.8c3.9-1.3,8-3.3,9-6.7c0.5-1.5,0.3-3.1-0.4-4.6
		c-1.7-4.1-6.3-6.8-10.5-9.1c6.1-1.9,11.9-4.4,17.3-7.4c1.6-0.9,3.3-2.2,3.1-3.8c-0.2-1.3-1.7-2.1-3-2.7c-3.6-1.4-7.3-1.7-11.1-2.2
		C281.4,600.4,280.7,600.3,280,600.2z"/>
	<path class="st6" d="M305.6,846.9c0,0,21.1,37.6,36.3,38.7c0,0,87.6-33.6,134.1-42.4c46.5-8.8,113.5-19.9,181-89.9
		c0,0,19.7-11.4,19.9-35.5c0.2-24.1-13.9-52.8-58.6-40.6c-44.7,12.1-110,33-150.4,63.1C427.5,770.2,339.5,839.1,305.6,846.9z"/>
	<path class="st4" d="M618.3,677.1c-44.7,12.1-110,33-150.4,63.1c-40.4,30-128.4,98.9-162.3,106.7c0,0,15.3,27.2,29.2,36
		c7-9.7,12.1-20.2,21.2-27.8c23-20,40-43,62-63c68-63,156-100,250-82c2.8,0.6,5.9,1.6,8.9,3.1C675.2,690.2,660.2,665.7,618.3,677.1z
		"/>
	<path class="st3" d="M657,753.2c0,0,19.7-11.4,19.9-35.5c0-3.4-0.2-7-0.8-10.5C662,760,558.4,820.2,493.9,830
		c-52.3,7.9-129.7,39.7-159.6,52.6c2.6,1.7,5.1,2.8,7.6,3c0,0,87.6-33.6,134.1-42.4C522.5,834.3,589.5,823.2,657,753.2z"/>
	<g class="st15">
		<path class="st3" d="M335.8,878.5c-0.4,0-0.7-0.2-0.9-0.6c-0.2-0.5,0-1,0.5-1.2l2.5-1c0.5-0.2,1,0,1.2,0.5c0.2,0.5,0,1-0.5,1.2
			l-2.5,1C336,878.5,335.9,878.5,335.8,878.5z"/>
		<path class="st3" d="M343.2,875.7c-0.4,0-0.7-0.2-0.9-0.6c-0.2-0.5,0-1,0.5-1.2c1.4-0.6,3.1-1.2,4.8-1.9c0.5-0.2,1,0.1,1.2,0.5
			c0.2,0.5-0.1,1-0.5,1.2c-1.8,0.7-3.4,1.3-4.8,1.9C343.4,875.6,343.3,875.6,343.2,875.7z M352.9,871.9c-0.4,0-0.7-0.2-0.9-0.6
			c-0.2-0.5,0.1-1,0.5-1.2l4.9-1.9c0.5-0.2,1,0.1,1.2,0.5c0.2,0.5-0.1,1-0.5,1.2l-4.9,1.9C353.1,871.9,353,871.9,352.9,871.9z"/>
		<path class="st3" d="M362.6,868.2c-0.4,0-0.7-0.2-0.9-0.6c-0.2-0.5,0.1-1,0.5-1.2l4.9-1.9c0.5-0.2,1,0.1,1.2,0.5
			c0.2,0.5-0.1,1-0.5,1.2l-4.9,1.9C362.8,868.2,362.7,868.2,362.6,868.2z M372.3,864.5c-0.4,0-0.7-0.2-0.9-0.6
			c-0.2-0.5,0.1-1,0.5-1.2l4.9-1.8c0.5-0.2,1,0.1,1.1,0.5c0.2,0.5-0.1,1-0.5,1.1l-4.9,1.8C372.5,864.5,372.4,864.5,372.3,864.5z
			 M382,860.8c-0.4,0-0.7-0.2-0.9-0.6c-0.2-0.5,0.1-1,0.5-1.1c1.6-0.6,3.2-1.2,4.9-1.8c0.5-0.2,1,0.1,1.1,0.5c0.2,0.5-0.1,1-0.5,1.1
			c-1.6,0.6-3.3,1.2-4.9,1.8C382.2,860.8,382.1,860.8,382,860.8z M391.8,857.2c-0.4,0-0.7-0.2-0.9-0.6c-0.2-0.5,0.1-1,0.5-1.1
			l4.9-1.8c0.5-0.2,1,0.1,1.1,0.5c0.2,0.5-0.1,1-0.5,1.1l-4.9,1.8C392,857.1,391.9,857.2,391.8,857.2z M401.6,853.6
			c-0.4,0-0.7-0.2-0.9-0.6c-0.2-0.5,0.1-1,0.5-1.1c1.6-0.6,3.3-1.2,4.9-1.8c0.5-0.2,1,0.1,1.1,0.5c0.2,0.5-0.1,1-0.5,1.1
			c-1.6,0.6-3.3,1.2-4.9,1.8C401.7,853.5,401.6,853.6,401.6,853.6z M411.3,850c-0.4,0-0.7-0.2-0.9-0.6c-0.2-0.5,0.1-1,0.5-1.1
			c1.6-0.6,3.3-1.2,4.9-1.8c0.5-0.2,1,0.1,1.1,0.5c0.2,0.5-0.1,1-0.5,1.1c-1.6,0.6-3.3,1.2-4.9,1.8C411.5,850,411.4,850,411.3,850z
			 M421.1,846.5c-0.4,0-0.7-0.2-0.9-0.6c-0.2-0.5,0.1-1,0.5-1.1c1.6-0.6,3.3-1.2,4.9-1.7c0.5-0.2,1,0.1,1.1,0.5
			c0.2,0.5-0.1,1-0.5,1.1c-1.6,0.6-3.3,1.2-4.9,1.7C421.3,846.5,421.2,846.5,421.1,846.5z M430.9,843c-0.4,0-0.7-0.2-0.9-0.6
			c-0.2-0.5,0.1-1,0.5-1.1c1.6-0.6,3.3-1.1,4.9-1.7c0.5-0.2,1,0.1,1.1,0.6c0.2,0.5-0.1,1-0.6,1.1c-1.6,0.6-3.3,1.1-4.9,1.7
			C431.1,843,431,843,430.9,843z M440.8,839.6c-0.4,0-0.7-0.2-0.9-0.6c-0.2-0.5,0.1-1,0.6-1.1c1.7-0.6,3.3-1.1,4.9-1.7
			c0.5-0.2,1,0.1,1.1,0.6s-0.1,1-0.6,1.1c-1.6,0.5-3.3,1.1-4.9,1.7C440.9,839.6,440.9,839.6,440.8,839.6z M450.6,836.3
			c-0.4,0-0.8-0.2-0.9-0.6c-0.2-0.5,0.1-1,0.6-1.1c1.7-0.6,3.3-1.1,5-1.6c0.5-0.2,1,0.1,1.1,0.6c0.2,0.5-0.1,1-0.6,1.1
			c-1.6,0.5-3.3,1.1-4.9,1.6C450.8,836.3,450.7,836.3,450.6,836.3z M460.5,833.1c-0.4,0-0.8-0.2-0.9-0.6c-0.1-0.5,0.1-1,0.6-1.1
			c1.7-0.5,3.4-1,5-1.5c0.5-0.1,1,0.1,1.1,0.6c0.1,0.5-0.1,1-0.6,1.1c-1.6,0.5-3.3,1-5,1.5C460.7,833.1,460.6,833.1,460.5,833.1z
			 M470.5,830.1c-0.4,0-0.8-0.2-0.9-0.6c-0.1-0.5,0.1-1,0.6-1.1c1.7-0.5,3.4-1,5-1.4c0.5-0.1,1,0.2,1.1,0.6c0.1,0.5-0.2,1-0.6,1.1
			c-1.6,0.4-3.3,0.9-5,1.4C470.7,830.1,470.6,830.1,470.5,830.1z M480.6,827.4c-0.4,0-0.8-0.3-0.9-0.7c-0.1-0.5,0.2-1,0.7-1.1
			c1.2-0.3,2.3-0.5,3.4-0.8c0.6-0.1,1.1-0.2,1.7-0.4c0.5-0.1,1,0.2,1.1,0.7c0.1,0.5-0.2,1-0.7,1.1c-0.6,0.1-1.2,0.3-1.7,0.4
			c-1,0.2-2.2,0.5-3.3,0.8C480.7,827.4,480.6,827.4,480.6,827.4z M490.7,825.1c-0.4,0-0.8-0.3-0.9-0.7c-0.1-0.5,0.2-1,0.7-1.1
			c1.6-0.4,3.3-0.8,5-1.3c0.5-0.1,1,0.2,1.1,0.6c0.1,0.5-0.2,1-0.6,1.1c-1.8,0.5-3.4,0.9-5.1,1.3C490.8,825,490.8,825,490.7,825.1z
			 M500.8,822.5c-0.4,0-0.8-0.2-0.9-0.7c-0.1-0.5,0.2-1,0.6-1.1c1.6-0.4,3.3-0.9,5-1.4c0.5-0.1,1,0.1,1.1,0.6c0.1,0.5-0.1,1-0.6,1.1
			c-1.7,0.5-3.4,1-5,1.4C500.9,822.5,500.9,822.5,500.8,822.5z M510.8,819.6c-0.4,0-0.8-0.2-0.9-0.6c-0.1-0.5,0.1-1,0.6-1.1
			c1.6-0.5,3.3-1,5-1.5c0.5-0.1,1,0.1,1.1,0.6c0.1,0.5-0.1,1-0.6,1.1c-1.7,0.5-3.4,1-5,1.5C510.9,819.6,510.9,819.6,510.8,819.6z
			 M520.7,816.5c-0.4,0-0.8-0.2-0.9-0.6c-0.2-0.5,0.1-1,0.6-1.1c1.6-0.5,3.3-1.1,4.9-1.7c0.5-0.2,1,0.1,1.1,0.6
			c0.2,0.5-0.1,1-0.6,1.1c-1.7,0.6-3.3,1.1-4.9,1.7C520.9,816.4,520.8,816.5,520.7,816.5z M530.6,813.1c-0.4,0-0.7-0.2-0.9-0.6
			c-0.2-0.5,0.1-1,0.5-1.1c1.6-0.6,3.2-1.2,4.9-1.8c0.5-0.2,1,0.1,1.1,0.5c0.2,0.5-0.1,1-0.5,1.1c-1.6,0.6-3.3,1.2-4.9,1.8
			C530.7,813,530.6,813.1,530.6,813.1z M540.3,809.4c-0.4,0-0.7-0.2-0.9-0.6c-0.2-0.5,0-1,0.5-1.2c1.6-0.6,3.2-1.3,4.8-1.9
			c0.5-0.2,1,0,1.2,0.5c0.2,0.5,0,1-0.5,1.2c-1.6,0.7-3.2,1.3-4.8,1.9C540.5,809.4,540.4,809.4,540.3,809.4z M549.9,805.5
			c-0.4,0-0.7-0.2-0.9-0.5c-0.2-0.5,0-1,0.5-1.2c1.6-0.7,3.2-1.4,4.8-2c0.4-0.2,1,0,1.2,0.5c0.2,0.5,0,1-0.5,1.2
			c-1.6,0.7-3.2,1.4-4.8,2.1C550.2,805.5,550,805.5,549.9,805.5z M559.5,801.3c-0.4,0-0.7-0.2-0.8-0.5c-0.2-0.4,0-1,0.4-1.2
			c1.6-0.7,3.1-1.4,4.7-2.2c0.4-0.2,1,0,1.2,0.4c0.2,0.4,0,1-0.4,1.2c-1.6,0.7-3.2,1.5-4.7,2.2C559.7,801.3,559.6,801.3,559.5,801.3
			z M568.9,796.9c-0.3,0-0.7-0.2-0.8-0.5c-0.2-0.4,0-1,0.4-1.2c1.5-0.8,3.1-1.5,4.6-2.3c0.4-0.2,1-0.1,1.2,0.4
			c0.2,0.4,0.1,1-0.4,1.2c-1.5,0.8-3.1,1.6-4.7,2.3C569.1,796.8,569,796.9,568.9,796.9z M578.1,792.1c-0.3,0-0.7-0.2-0.8-0.5
			c-0.2-0.4-0.1-1,0.4-1.2c1.5-0.8,3-1.6,4.5-2.5c0.4-0.2,1-0.1,1.2,0.3c0.2,0.4,0.1,1-0.3,1.2c-1.5,0.8-3,1.7-4.6,2.5
			C578.4,792.1,578.2,792.1,578.1,792.1z M587.2,787c-0.3,0-0.6-0.1-0.8-0.4c-0.2-0.4-0.1-1,0.3-1.2c1.5-0.9,3-1.8,4.4-2.7
			c0.4-0.3,1-0.1,1.2,0.3c0.3,0.4,0.1,1-0.3,1.2c-1.5,0.9-3,1.8-4.5,2.7C587.5,787,587.3,787,587.2,787z M596,781.6
			c-0.3,0-0.6-0.1-0.8-0.4c-0.3-0.4-0.1-1,0.3-1.2c1.5-0.9,2.9-1.9,4.3-2.8c0.4-0.3,1-0.2,1.2,0.2c0.3,0.4,0.2,1-0.2,1.2
			c-1.4,1-2.9,1.9-4.4,2.9C596.3,781.6,596.2,781.6,596,781.6z M604.7,775.8c-0.3,0-0.6-0.1-0.8-0.4c-0.3-0.4-0.2-1,0.2-1.2
			c1.4-1,2.8-2,4.2-3c0.4-0.3,1-0.2,1.2,0.2c0.3,0.4,0.2,1-0.2,1.2c-1.4,1-2.8,2-4.2,3.1C605,775.8,604.9,775.8,604.7,775.8z
			 M613.1,769.6c-0.3,0-0.6-0.1-0.7-0.3c-0.3-0.4-0.2-0.9,0.2-1.3c1.4-1.1,2.7-2.2,4.1-3.2c0.4-0.3,0.9-0.3,1.3,0.1
			c0.3,0.4,0.3,0.9-0.1,1.3c-1.3,1.1-2.7,2.2-4.1,3.3C613.4,769.6,613.2,769.6,613.1,769.6z M621.1,763c-0.3,0-0.5-0.1-0.7-0.3
			c-0.3-0.4-0.3-0.9,0.1-1.3c1.3-1.1,2.6-2.3,3.9-3.5c0.4-0.3,0.9-0.3,1.3,0.1c0.3,0.4,0.3,0.9-0.1,1.3c-1.3,1.2-2.6,2.3-3.9,3.5
			C621.5,762.9,621.3,763,621.1,763z M628.8,756c-0.2,0-0.5-0.1-0.7-0.3c-0.3-0.4-0.3-0.9,0-1.3c1.2-1.2,2.5-2.4,3.6-3.7
			c0.3-0.4,0.9-0.4,1.3,0c0.4,0.3,0.4,0.9,0,1.3c-1.2,1.3-2.4,2.5-3.7,3.7C629.2,755.9,629,755.9,628.8,756z M636,748.4
			c-0.2,0-0.4-0.1-0.6-0.2c-0.4-0.3-0.4-0.9-0.1-1.3c1.1-1.3,2.3-2.6,3.4-3.9c0.3-0.4,0.9-0.4,1.3-0.1c0.4,0.3,0.4,0.9,0.1,1.3
			c-1.1,1.3-2.3,2.7-3.4,4C636.5,748.3,636.2,748.4,636,748.4z"/>
		<path class="st3" d="M642.4,740.7c-0.2,0-0.4-0.1-0.6-0.2c-0.4-0.3-0.5-0.9-0.2-1.3c0.5-0.7,1.1-1.4,1.6-2.1
			c0.3-0.4,0.9-0.5,1.2-0.2c0.4,0.3,0.5,0.9,0.2,1.2c-0.5,0.7-1.1,1.4-1.6,2.2C642.9,740.5,642.7,740.6,642.4,740.7z"/>
	</g>
	<path class="st1" d="M455.1,834c0,0,20.5,13.4,40.2,10.7c19.6-2.7,47.3-5.4,46.4,25.9s6.2,47.3,11.6,65.1
		c5.4,17.8,3.6,66.9-11.6,75c-15.2,8-35.7,2.7-38.4-29.4s-30.3-78.5-35.7-81.2c-5.4-2.7-5.4-19.6-5.4-19.6l-30.3-12.5L455.1,834z"/>
	<path class="st5" d="M541.6,870.6c0.9-31.2-26.8-28.6-46.4-25.9c-1.1,0.1-2.1,0.2-3.2,0.3c1.5,8.3,1.6,17.3-8.4,18.4
		c-15.2,1.8-21.4,17-21.4,17s0,17,5.4,19.6c5.4,2.7,33,49.1,35.7,81.2s23.2,37.5,38.4,29.4c15.2-8,17-57.1,11.6-75
		C547.9,917.9,540.8,901.9,541.6,870.6z"/>
	<path class="st6" d="M542.9,1003c-4,4-13,3-17-1c-19-14-18-41-26-62c-6-17-15-33-30-46c-4.9-4.9-5.8-11.1-5.4-17.6
		c-1.5,2.3-2.2,4.1-2.2,4.1s0,17,5.4,19.6c5.4,2.7,33,49.1,35.7,81.2c2.7,32.1,23.2,37.5,38.4,29.4c4.5-2.4,7.8-8.4,10.2-16.2
		C548.9,997.5,546,1000.4,542.9,1003z"/>
	<g>
		<path class="st3" d="M481,920.1c-0.1,0-0.2,0-0.3,0c-1.2-0.2-2.1-1.3-1.9-2.5c2.8-19.5,20.7-32.2,21.5-32.7c1-0.7,2.4-0.5,3.1,0.5
			c0.7,1,0.5,2.4-0.5,3.1l0,0c-0.2,0.1-17.1,12.2-19.6,29.7C483,919.3,482.1,920.1,481,920.1z"/>
		<path class="st3" d="M486.9,932.7c-0.2,0-0.4,0-0.5-0.1c-1.2-0.3-1.9-1.5-1.6-2.7c5.1-21.1,22.9-32.2,23.7-32.7
			c1-0.6,2.4-0.3,3.1,0.7c0.6,1,0.3,2.4-0.7,3.1c-0.2,0.1-17,10.7-21.7,29.9C488.8,932,487.9,932.7,486.9,932.7z"/>
		<path class="st3" d="M489.9,940.7c-0.3,0-0.5,0-0.8-0.1c-1.2-0.4-1.7-1.7-1.3-2.9c7.4-19.3,22.7-27.6,23.3-27.9
			c1.1-0.6,2.4-0.2,3,0.9c0.6,1.1,0.2,2.4-0.9,3c-0.2,0.1-14.5,8-21.3,25.6C491.6,940.1,490.8,940.7,489.9,940.7z"/>
		<path class="st3" d="M494.4,951.4c-0.3,0-0.6-0.1-0.9-0.2c-1.1-0.5-1.6-1.8-1.1-3c8.3-18.4,22.7-25.8,23.3-26.1
			c1.1-0.5,2.4-0.1,3,1c0.6,1.1,0.1,2.4-1,3c-0.2,0.1-13.7,7.1-21.3,23.9C496,950.9,495.2,951.4,494.4,951.4z"/>
		<path class="st3" d="M498.2,961.6c-0.3,0-0.7-0.1-1-0.2c-1.1-0.6-1.5-1.9-1-3c9.5-19.1,21.3-22,21.8-22.1c1.2-0.3,2.4,0.5,2.7,1.7
			c0.3,1.2-0.5,2.4-1.7,2.7c-0.2,0-10.3,2.8-18.8,19.7C499.8,961.1,499,961.6,498.2,961.6z"/>
		<path class="st3" d="M500.6,973.7c-0.3,0-0.6-0.1-0.9-0.2c-1.1-0.5-1.6-1.8-1.1-2.9c7.3-16.4,20.7-26.4,21.2-26.8
			c1-0.7,2.4-0.5,3.1,0.5c0.7,1,0.5,2.4-0.5,3.1c-0.1,0.1-13,9.7-19.8,25C502.3,973.2,501.5,973.7,500.6,973.7z"/>
	</g>
	<path class="st6" d="M462.7,828.2c0,0,18.7,40.2-18.7,60.7c0,0-120.5-32.1-197.2-46.4s-139.2-49.1-166.9-72.3
		C52.2,747,62,721.2,84.4,698.9s62.5-18.7,107.1-4.5S420.7,817.5,462.7,828.2z"/>
	<path class="st4" d="M191.4,694.4c-44.6-14.3-84.8-17.8-107.1,4.5c-9,9-15.9,18.6-19.2,28.3c38.7-35.4,106-11.3,150.8,4.8
		c13,4,25,13,38,18c38,15,72,37,109,53c32.1,13.5,66,23.2,100.5,26.8c-0.4-1-0.7-1.6-0.7-1.6C420.7,817.5,236,708.7,191.4,694.4z"/>
	<path class="st3" d="M443.9,888.9c15.3-8.4,21.2-20,22.9-30.8c-32.7,46.2-149-18.3-216.9-25.1c-70-7-142-51-161-71
		c-18.8-19.8-19.3-44-19.3-44.4c-10,17.4-9.8,35.7,10.4,52.7c27.7,23.2,90.1,58,166.9,72.3C323.5,856.8,443.9,888.9,443.9,888.9z"/>
	<path class="st10" d="M336.6,410.9c0,0,0.2,21.1,18.8,28.6c18.6,7.5,29.4-25,29.4-25s-12.6-14-24.2-15.1
		C360.6,399.4,348.8,399.8,336.6,410.9z"/>
	<path class="st14" d="M251.3,545.1l-1.4-23.2c0,0-2.5-12.5,14.5-13.1s18.7,0.3,18.7,0.3s-17.9,1.5-25.1,6.7
		C250.8,521,251.3,545.1,251.3,545.1z"/>
	<g class="st15">
		<path class="st3" d="M407.1,868.3c0.4,0,0.7-0.3,0.8-0.6c0.1-0.5-0.1-1-0.6-1.1l-2.6-0.8c-0.5-0.1-1,0.1-1.1,0.6
			c-0.1,0.5,0.1,1,0.6,1.1l2.5,0.8C406.9,868.3,407,868.3,407.1,868.3z"/>
		<path class="st3" d="M399.3,865.9c-1.5-0.5-3.1-1-5-1.5c-0.5-0.1-0.7-0.6-0.6-1.1c0.1-0.5,0.6-0.7,1.1-0.6c1.8,0.6,3.5,1.1,5,1.5
			c0.5,0.1,0.7,0.6,0.6,1.1c-0.1,0.4-0.5,0.6-0.8,0.6C399.5,866,399.4,866,399.3,865.9z M389.4,862.9l-5-1.5
			c-0.5-0.1-0.7-0.6-0.6-1.1c0.1-0.5,0.6-0.7,1.1-0.6l5,1.5c0.5,0.1,0.7,0.6,0.6,1.1c-0.1,0.4-0.5,0.6-0.8,0.6
			C389.6,862.9,389.5,862.9,389.4,862.9z"/>
		<path class="st3" d="M379.5,859.8l-5-1.5c-0.5-0.1-0.7-0.6-0.6-1.1c0.1-0.5,0.6-0.7,1.1-0.6l5,1.5c0.5,0.1,0.7,0.6,0.6,1.1
			c-0.1,0.4-0.5,0.6-0.8,0.6C379.7,859.9,379.6,859.8,379.5,859.8z M369.5,856.8l-5-1.5c-0.5-0.1-0.7-0.6-0.6-1.1
			c0.1-0.5,0.6-0.7,1.1-0.6l5,1.5c0.5,0.1,0.7,0.6,0.6,1.1c-0.1,0.4-0.5,0.6-0.8,0.6C369.7,856.8,369.6,856.8,369.5,856.8z
			 M359.5,853.8c-1.6-0.5-3.3-1-5-1.5c-0.5-0.1-0.7-0.6-0.6-1.1c0.1-0.5,0.6-0.7,1.1-0.6c1.7,0.5,3.3,1,5,1.5
			c0.5,0.1,0.7,0.6,0.6,1.1c-0.1,0.4-0.5,0.6-0.8,0.6C359.7,853.9,359.6,853.9,359.5,853.8z M349.6,850.9l-5-1.5
			c-0.5-0.1-0.7-0.6-0.6-1.1c0.1-0.5,0.6-0.7,1.1-0.6l5,1.5c0.5,0.1,0.7,0.6,0.6,1.1c-0.1,0.4-0.5,0.6-0.8,0.6
			C349.7,850.9,349.6,850.9,349.6,850.9z M339.6,848c-1.7-0.5-3.3-1-5-1.4c-0.5-0.1-0.7-0.6-0.6-1.1c0.1-0.5,0.6-0.7,1.1-0.6
			c1.7,0.5,3.3,1,5,1.4c0.5,0.1,0.7,0.6,0.6,1.1c-0.1,0.4-0.5,0.6-0.8,0.6C339.8,848,339.7,848,339.6,848z M329.6,845.1
			c-1.7-0.5-3.3-0.9-5-1.4c-0.5-0.1-0.7-0.6-0.6-1.1c0.1-0.5,0.6-0.8,1.1-0.6c1.7,0.5,3.3,0.9,5,1.4c0.5,0.1,0.7,0.6,0.6,1.1
			c-0.1,0.4-0.5,0.6-0.8,0.6C329.8,845.1,329.7,845.1,329.6,845.1z M319.6,842.3c-1.7-0.5-3.3-0.9-5-1.4c-0.5-0.1-0.8-0.6-0.6-1.1
			c0.1-0.5,0.6-0.8,1.1-0.6c1.7,0.5,3.3,0.9,5,1.4c0.5,0.1,0.8,0.6,0.6,1.1c-0.1,0.4-0.5,0.6-0.8,0.7
			C319.7,842.3,319.6,842.3,319.6,842.3z M309.5,839.5c-1.7-0.5-3.4-0.9-5-1.4c-0.5-0.1-0.8-0.6-0.6-1.1c0.1-0.5,0.6-0.8,1.1-0.6
			c1.7,0.4,3.3,0.9,5,1.4c0.5,0.1,0.8,0.6,0.6,1.1c-0.1,0.4-0.4,0.6-0.8,0.7C309.7,839.5,309.6,839.5,309.5,839.5z M299.5,836.8
			c-1.7-0.4-3.4-0.9-5-1.3c-0.5-0.1-0.8-0.6-0.6-1.1c0.1-0.5,0.6-0.8,1.1-0.6c1.7,0.4,3.3,0.9,5,1.3c0.5,0.1,0.8,0.6,0.6,1.1
			c-0.1,0.4-0.4,0.7-0.8,0.7C299.7,836.8,299.6,836.8,299.5,836.8z M289.4,834.2c-1.7-0.4-3.4-0.9-5-1.3c-0.5-0.1-0.8-0.6-0.7-1.1
			c0.1-0.5,0.6-0.8,1.1-0.7c1.7,0.4,3.3,0.8,5.1,1.3c0.5,0.1,0.8,0.6,0.6,1.1c-0.1,0.4-0.4,0.7-0.8,0.7
			C289.6,834.2,289.5,834.2,289.4,834.2z M279.3,831.7c-1.7-0.4-3.4-0.8-5.1-1.2c-0.5-0.1-0.8-0.6-0.7-1.1c0.1-0.5,0.6-0.8,1.1-0.7
			c1.6,0.4,3.3,0.8,5.1,1.2c0.5,0.1,0.8,0.6,0.7,1.1c-0.1,0.4-0.4,0.7-0.8,0.7C279.5,831.7,279.4,831.7,279.3,831.7z M269.2,829.3
			c-1.8-0.4-3.5-0.7-5.1-1.1c-0.5-0.1-0.8-0.6-0.7-1c0.1-0.5,0.6-0.8,1-0.7c1.6,0.3,3.3,0.7,5.1,1.1c0.5,0.1,0.8,0.6,0.7,1.1
			c-0.1,0.4-0.4,0.7-0.8,0.7C269.3,829.4,269.3,829.4,269.2,829.3z M259,827.3c-1.2-0.2-2.3-0.4-3.4-0.5c-0.6-0.1-1.2-0.2-1.8-0.3
			c-0.5-0.1-0.8-0.5-0.8-1c0.1-0.5,0.5-0.8,1-0.8c0.6,0.1,1.2,0.2,1.7,0.3c1.1,0.2,2.2,0.3,3.4,0.5c0.5,0.1,0.8,0.5,0.7,1
			c-0.1,0.4-0.4,0.7-0.8,0.7C259.1,827.4,259.1,827.4,259,827.3z M248.7,825.8c-1.6-0.3-3.4-0.6-5.1-0.9c-0.5-0.1-0.8-0.6-0.7-1
			c0.1-0.5,0.6-0.8,1-0.7c1.8,0.3,3.5,0.6,5.1,0.9c0.5,0.1,0.8,0.5,0.7,1c-0.1,0.4-0.4,0.7-0.9,0.7
			C248.9,825.8,248.8,825.8,248.7,825.8z M238.5,823.9c-1.7-0.3-3.4-0.7-5.1-1.1c-0.5-0.1-0.8-0.6-0.7-1.1c0.1-0.5,0.6-0.8,1.1-0.7
			c1.7,0.4,3.4,0.7,5.1,1c0.5,0.1,0.8,0.6,0.7,1c-0.1,0.4-0.4,0.7-0.8,0.7C238.6,823.9,238.5,823.9,238.5,823.9z M228.3,821.7
			c-1.7-0.4-3.4-0.8-5.1-1.2c-0.5-0.1-0.8-0.6-0.7-1.1c0.1-0.5,0.6-0.8,1.1-0.7c1.7,0.4,3.4,0.8,5.1,1.2c0.5,0.1,0.8,0.6,0.7,1.1
			c-0.1,0.4-0.4,0.7-0.8,0.7C228.4,821.7,228.3,821.7,228.3,821.7z M218.1,819.3c-1.7-0.4-3.3-0.9-5-1.3c-0.5-0.1-0.8-0.6-0.6-1.1
			s0.6-0.8,1.1-0.6c1.7,0.5,3.4,0.9,5,1.3c0.5,0.1,0.8,0.6,0.6,1.1c-0.1,0.4-0.4,0.7-0.8,0.7C218.3,819.3,218.2,819.3,218.1,819.3z
			 M208.1,816.5c-1.7-0.5-3.3-0.9-5-1.4c-0.5-0.1-0.7-0.6-0.6-1.1c0.1-0.5,0.6-0.7,1.1-0.6c1.7,0.5,3.3,1,5,1.4
			c0.5,0.1,0.8,0.6,0.6,1.1c-0.1,0.4-0.5,0.6-0.8,0.6C208.2,816.6,208.1,816.6,208.1,816.5z M198.1,813.6c-1.6-0.5-3.3-1-5-1.6
			c-0.5-0.2-0.7-0.7-0.6-1.1c0.2-0.5,0.7-0.7,1.1-0.6c1.7,0.5,3.3,1.1,4.9,1.6c0.5,0.1,0.7,0.6,0.6,1.1c-0.1,0.4-0.5,0.6-0.8,0.6
			C198.3,813.6,198.2,813.6,198.1,813.6z M188.1,810.3c-1.6-0.6-3.3-1.1-4.9-1.7c-0.5-0.2-0.7-0.7-0.5-1.1c0.2-0.5,0.7-0.7,1.1-0.5
			c1.6,0.6,3.3,1.2,4.9,1.7c0.5,0.2,0.7,0.7,0.6,1.1c-0.1,0.4-0.5,0.6-0.8,0.6C188.4,810.4,188.3,810.4,188.1,810.3z M178.3,806.8
			c-1.6-0.6-3.2-1.2-4.9-1.9c-0.5-0.2-0.7-0.7-0.5-1.2c0.2-0.5,0.7-0.7,1.2-0.5c1.6,0.6,3.2,1.3,4.8,1.9c0.5,0.2,0.7,0.7,0.5,1.1
			c-0.1,0.3-0.5,0.6-0.8,0.6C178.6,806.9,178.4,806.9,178.3,806.8z M168.6,803c-1.6-0.7-3.2-1.3-4.8-2c-0.5-0.2-0.7-0.7-0.5-1.2
			c0.2-0.5,0.7-0.7,1.2-0.5c1.6,0.7,3.2,1.4,4.8,2c0.5,0.2,0.7,0.7,0.5,1.2c-0.1,0.3-0.5,0.5-0.8,0.6
			C168.9,803.1,168.7,803.1,168.6,803z M159,798.9c-1.6-0.7-3.2-1.4-4.7-2.2c-0.4-0.2-0.6-0.7-0.4-1.2c0.2-0.4,0.7-0.6,1.2-0.4
			c1.6,0.7,3.1,1.5,4.7,2.2c0.4,0.2,0.6,0.7,0.4,1.2c-0.1,0.3-0.5,0.5-0.8,0.5C159.3,799,159.2,799,159,798.9z M149.6,794.5
			c-1.6-0.8-3.1-1.6-4.7-2.4c-0.4-0.2-0.6-0.8-0.4-1.2c0.2-0.4,0.8-0.6,1.2-0.4c1.5,0.8,3.1,1.6,4.6,2.3c0.4,0.2,0.6,0.8,0.4,1.2
			c-0.2,0.3-0.5,0.5-0.8,0.5C149.9,794.6,149.8,794.5,149.6,794.5z M140.4,789.7c-1.5-0.8-3-1.7-4.6-2.5c-0.4-0.2-0.6-0.8-0.3-1.2
			c0.2-0.4,0.8-0.6,1.2-0.3c1.5,0.9,3,1.7,4.5,2.5c0.4,0.2,0.6,0.8,0.4,1.2c-0.2,0.3-0.4,0.5-0.8,0.5
			C140.7,789.8,140.5,789.7,140.4,789.7z M131.3,784.5c-1.5-0.9-3-1.8-4.4-2.8c-0.4-0.3-0.5-0.8-0.3-1.2c0.3-0.4,0.8-0.5,1.2-0.3
			c1.4,0.9,2.9,1.8,4.4,2.7c0.4,0.3,0.6,0.8,0.3,1.2c-0.2,0.3-0.4,0.4-0.7,0.4C131.6,784.6,131.4,784.6,131.3,784.5z M122.5,778.8
			c-1.5-1-2.9-2-4.3-3c-0.4-0.3-0.5-0.8-0.2-1.2c0.3-0.4,0.8-0.5,1.2-0.2c1.4,1,2.8,2,4.3,2.9c0.4,0.3,0.5,0.8,0.2,1.2
			c-0.2,0.2-0.4,0.4-0.7,0.4C122.8,779,122.6,779,122.5,778.8z M113.9,772.8c-1.4-1.1-2.8-2.1-4.1-3.2c-0.4-0.3-0.4-0.9-0.1-1.3
			c0.3-0.4,0.9-0.4,1.3-0.1c1.3,1.1,2.7,2.1,4.1,3.2c0.4,0.3,0.5,0.9,0.2,1.2c-0.2,0.2-0.4,0.3-0.7,0.4
			C114.3,773,114.1,772.9,113.9,772.8z M105.7,766.2c-1.3-1.1-2.7-2.3-3.9-3.5c-0.4-0.3-0.4-0.9-0.1-1.3c0.3-0.4,0.9-0.4,1.3-0.1
			c1.3,1.2,2.6,2.3,3.9,3.4c0.4,0.3,0.4,0.9,0.1,1.3c-0.2,0.2-0.4,0.3-0.7,0.3C106.1,766.5,105.9,766.4,105.7,766.2z M98,759.2
			c-1.2-1.2-2.5-2.5-3.7-3.7c-0.3-0.4-0.3-0.9,0-1.3c0.4-0.3,0.9-0.3,1.3,0c1.2,1.2,2.4,2.5,3.6,3.7c0.4,0.3,0.4,0.9,0,1.3
			c-0.2,0.2-0.4,0.3-0.6,0.3C98.4,759.4,98.2,759.4,98,759.2z"/>
		<path class="st3" d="M91.7,752.1c0.2,0,0.4-0.1,0.6-0.2c0.4-0.3,0.4-0.9,0.1-1.3c-0.6-0.7-1.2-1.3-1.7-2c-0.3-0.4-0.9-0.4-1.3-0.1
			c-0.4,0.3-0.4,0.9-0.1,1.3c0.6,0.7,1.2,1.4,1.8,2C91.2,752,91.4,752.1,91.7,752.1z"/>
	</g>
	<g>
		<circle class="st16" cx="201.4" cy="399.5" r="67.5"/>
		<g>
			<path class="st14" d="M201.8,426.1c-2.5,0-4.9-1.1-6.5-3l-29.8-34c-3.2-3.6-2.8-9.1,0.8-12.3c3.6-3.2,9.1-2.8,12.3,0.8l23.3,26.5
				l23.8-27.1c3.2-3.6,8.7-4,12.3-0.8c3.6,3.2,4,8.7,0.8,12.3l-30.3,34.6C206.7,425,204.3,426.1,201.8,426.1z"/>
			<path class="st14" d="M201.8,426.1c-4.8,0-8.7-3.9-8.7-8.7v-66.1c0-4.8,3.9-8.7,8.7-8.7s8.7,3.9,8.7,8.7v66.1
				C210.5,422.2,206.6,426.1,201.8,426.1z"/>
			<path class="st14" d="M232.7,447.1h-59.6c-4.8,0-8.7-3.9-8.7-8.7c0-4.8,3.9-8.7,8.7-8.7h59.6c4.8,0,8.7,3.9,8.7,8.7
				C241.4,443.2,237.5,447.1,232.7,447.1z"/>
		</g>
	</g>
	<path class="st3" d="M357.1,333.9c15.2,2.4,30.8-2.9,39-24.9c0.2-0.5,0.4-1,0.6-1.5c-2.5,4-5,7.9-8.3,11.3
		c-3.3,3.4-10.7,10.4-15.7,7.1c-1.1-0.7-2-1.8-3-2.7c-2-1.6-4.7-2.1-7.2-1.8s-4.9,1.4-7,2.9c-1.4,1-2.8,2.1-4.4,2.7
		c-4.3,1.5-10.7-2.5-14.4-4.6c-4-2.2-7.7-4.9-11.1-7.9c-2.9-2.5-7.7-6.2-9.3-9.9c2.2,5.2,5,9.7,8.4,12.9
		C332.4,324.9,344.7,332,357.1,333.9z"/>
	<path class="st3" d="M354.2,275.6c0,0,11.1,1.1,15.9-4.7c0,0-0.2,6.2-7.2,7.2S354.2,275.6,354.2,275.6z"/>
	<g>
		<circle class="st16" cx="509.4" cy="325.5" r="51.5"/>
		<g>
			<path class="st14" d="M509.7,345.8c-1.9,0-3.7-0.8-5-2.3L482,317.6c-2.4-2.8-2.2-7,0.6-9.4c2.8-2.4,7-2.2,9.4,0.6l17.8,20.2
				l18.2-20.7c2.4-2.8,6.6-3,9.4-0.6c2.8,2.4,3,6.6,0.6,9.4l-23.2,26.4C513.5,345,511.6,345.8,509.7,345.8z"/>
			<path class="st14" d="M509.7,345.8c-3.7,0-6.6-3-6.6-6.6v-50.4c0-3.7,3-6.6,6.6-6.6c3.7,0,6.6,3,6.6,6.6v50.4
				C516.3,342.8,513.3,345.8,509.7,345.8z"/>
			<path class="st14" d="M533.3,361.9h-45.5c-3.7,0-6.6-3-6.6-6.6s3-6.6,6.6-6.6h45.5c3.7,0,6.6,3,6.6,6.6S537,361.9,533.3,361.9z"
				/>
		</g>
	</g>
</g>
<path class="st17" d="M588.4,887.9L588.4,887.9c-5.3,0-9.6-4.3-9.6-9.6V750.6c0-5.3,4.3-9.6,9.6-9.6l0,0c5.3,0,9.6,4.3,9.6,9.6
	v127.8C598,883.7,593.7,887.9,588.4,887.9z"/>
<path class="st18" d="M487.6,566L487.6,566c-5.3,0-9.6-4.3-9.6-9.6V435.6c0-5.3,4.3-9.6,9.6-9.6l0,0c5.3,0,9.6,4.3,9.6,9.6v120.8
	C497.2,561.7,492.9,566,487.6,566z"/>
<path class="st18" d="M233.6,252L233.6,252c-5.3,0-9.6-4.3-9.6-9.6V121.6c0-5.3,4.3-9.6,9.6-9.6h0c5.3,0,9.6,4.3,9.6,9.6v120.8
	C243.2,247.7,238.9,252,233.6,252z"/>
<path class="st16" d="M113.5,342.3L113.5,342.3c-5.3,0-9.6-4.3-9.6-9.6v-44.8c0-5.3,4.3-9.6,9.6-9.6h0c5.3,0,9.6,4.3,9.6,9.6v44.8
	C123.1,338,118.8,342.3,113.5,342.3z"/>
<path class="st16" d="M403.5,532.3L403.5,532.3c-5.3,0-9.6-4.3-9.6-9.6v-44.8c0-5.3,4.3-9.6,9.6-9.6l0,0c5.3,0,9.6,4.3,9.6,9.6v44.8
	C413.1,528,408.8,532.3,403.5,532.3z"/>
<path class="st16" d="M469.5,675.3L469.5,675.3c-5.3,0-9.6-4.3-9.6-9.6v-44.8c0-5.3,4.3-9.6,9.6-9.6l0,0c5.3,0,9.6,4.3,9.6,9.6v44.8
	C479.1,671,474.8,675.3,469.5,675.3z"/>
<path class="st17" d="M434.6,261.4L434.6,261.4c-5.3,0-9.6-4.3-9.6-9.6v-76.1c0-5.3,4.3-9.6,9.6-9.6l0,0c5.3,0,9.6,4.3,9.6,9.6v76.1
	C444.2,257.1,439.9,261.4,434.6,261.4z"/>
<path class="st16" d="M618.2,543.6L618.2,543.6c-5.3,0-9.6-4.3-9.6-9.6v-76.1c0-5.3,4.3-9.6,9.6-9.6l0,0c5.3,0,9.6,4.3,9.6,9.6V534
	C627.8,539.3,623.5,543.6,618.2,543.6z"/>
<path class="st16" d="M144.2,737.6L144.2,737.6c-5.3,0-9.6-4.3-9.6-9.6v-76.1c0-5.3,4.3-9.6,9.6-9.6h0c5.3,0,9.6,4.3,9.6,9.6V728
	C153.8,733.3,149.5,737.6,144.2,737.6z"/>
<path class="st17" d="M192.8,913.1L192.8,913.1c-5.3,0-9.6-4.3-9.6-9.6v-50.7c0-5.3,4.3-9.6,9.6-9.6h0c5.3,0,9.6,4.3,9.6,9.6v50.7
	C202.4,908.8,198.1,913.1,192.8,913.1z"/>
<path class="st17" d="M324.8,798.1L324.8,798.1c-5.3,0-9.6-4.3-9.6-9.6V590.8c0-5.3,4.3-9.6,9.6-9.6h0c5.3,0,9.6,4.3,9.6,9.6v197.7
	C334.4,793.8,330.1,798.1,324.8,798.1z"/>
<path class="st18" d="M205.5,553.5L205.5,553.5c-5.3,0-9.6-4.3-9.6-9.6v-50.7c0-5.3,4.3-9.6,9.6-9.6h0c5.3,0,9.6,4.3,9.6,9.6v50.7
	C215.1,549.2,210.8,553.5,205.5,553.5z"/>
<path class="st17" d="M187.6,236.9L187.6,236.9c-5.3,0-9.6-4.3-9.6-9.6v-50.7c0-5.3,4.3-9.6,9.6-9.6h0c5.3,0,9.6,4.3,9.6,9.6v50.7
	C197.2,232.6,192.9,236.9,187.6,236.9z"/>
<circle class="st14" cx="555.8" cy="433.1" r="23.3"/>
<circle class="st14" cx="133.8" cy="553.1" r="23.3"/>
<linearGradient id="SVGID_3_" gradientUnits="userSpaceOnUse" x1="364.0248" y1="957.4576" x2="364.0248" y2="68.0394" gradientTransform="matrix(1 -9.626879e-05 9.626879e-05 1 -0.204 0.4079)">
	<stop  offset="0" style="stop-color:#CBECEF"/>
	<stop  offset="1" style="stop-color:#CBECEF;stop-opacity:0"/>
</linearGradient>
<path class="st19" d="M700.8,0L26.8,0l0.1,1045h0.2c0,0.1-0.1,0.2-0.1,0.3c0,10.6,150.9,19.3,336.9,19.2
	c186.1,0,336.9-8.7,336.9-19.3c0-0.1,0-0.2-0.1-0.3h0.1L700.8,0z"/>
<ellipse class="st20" cx="363.9" cy="1045.3" rx="336.9" ry="19.3"/>
</svg>
